/* XPM */
static char *xpm_[] = {
/* columns rows colors chars-per-pixel */
"32 32 21 1 ",
"  c #151614",
". c #373737",
"X c #464646",
"o c #4E4E4E",
"O c #5F5F5F",
"+ c #647051",
"@ c #6C6B6B",
"# c gray45",
"$ c #767678",
"% c #7C7C7C",
"& c #939A79",
"* c #9F9F9F",
"= c #A49B85",
"- c #B7B7B7",
"; c #B7B7BB",
": c #C4C1B0",
"> c gray85",
", c gray86",
"< c #D9D9DD",
"1 c white",
"2 c None",
/* pixels */
"22222222222222222222222222222222",
"22222222222222222222222222222222",
"2222222222222@@$;$@@222222222222",
"22222222222$;<;111;<;$2222222222",
"222222222$;<11<1<1<11<;$22222222",
"22222222$11<1<;;;;;<1<11$2222222",
"22222222;<1;;:::::::;;1<;2222222",
"2222222$<;:,:::::::::,:;<$222222",
"222222$;;::,,:::::::,,::;<$22222",
"222222$;::::,,,,,,,,,::::;$22222",
"222222@;:::::,,,,,,,:::::;@22222",
"22222@=:::::::::::::::::::=@2222",
"22222@=:::::::::::::::::::=@2222",
"22222@=:::::::::::::::::::=@2222",
"22222@=:::::::::::::::::::=@2222",
"2222@=::::::::::::::::::::==@222",
"2222@::::::::::::::::::::::=@222",
"222@=::,:::::::::::::::,:::=@222",
"222@::::,,:::::::::::,,:=::=@222",
"22@=::=::,:=:,,,,,:::,::=::=@222",
"22@=::=::::=::,,,::=::::=::=@222",
"22@=::==:::=:::::::=:::==:==@222",
"22@=:===::==::::::=:::===:=@2222",
"222@===@=====:::=======@===@ 222",
"2222@=@@===@==========@@==@& 222",
"22222@22@==@=====@==@@o.@@&+ 222",
"22222222.@@#@===@1@@1ooo.   2222",
"2222222.oo##,@@@,-11,#ooo.222222",
"2222222.o###*-->*#--*##oo.222222",
"22222222.##***11**#11#oo.2222222",
"222222222.#******###o...22222222",
"2222222222.X%%%O.....22222222222"
};
