/* XPM */
static char *xpm_[] = {
/* columns rows colors chars-per-pixel */
"32 32 27 1 ",
"  c #151614",
". c #2E1E22",
"X c #373737",
"o c #3A4B2C",
"O c #464646",
"+ c #4E4E4E",
"@ c #615847",
"# c #647051",
"$ c #6C6B6B",
"% c gray45",
"& c #767676",
"* c #767678",
"= c #837D60",
"- c #999B69",
"; c #939A79",
": c #A4A377",
"> c #9F9F9F",
", c #A49B85",
"< c #B5B684",
"1 c #B7B7B7",
"2 c #B7B7BB",
"3 c #C4C1B0",
"4 c gray85",
"5 c gray86",
"6 c #D9D9DD",
"7 c white",
"8 c None",
/* pixels */
"88888888888888888888888888888888",
"88888888888888888888888888888888",
"88888888888*22**$$$$$88888888888",
"8888888888*67726723,,$$888888888",
"888888888$*7762776*533,$88888888",
"88888888$,335336627*533,$8888888",
"8888888$,333553336765333,$888888",
"8888888$,33335555522*333,$888888",
"888888$,33333333336723333,$88888",
"888888$,3,33,33,333623333,$88888",
"888888$,3,33,33,3332*33333$88888",
"888888$,3,33,33,3,3*333333,$8888",
"8888888$,;,,<,,,3,33333333,$8888",
"88888888 #;<:==:,333333333,$8888",
"88888888 #<:@..@3333333333,$8888",
"88888888 ;<=....333,3333333,$888",
"88888888 ;<=....353,33353353,$88",
"88888888 #o:@..@353,35533333,$88",
"888888888 #;:==3333,,35333333,$8",
"8888888888 o -3333,,$3333,333,$8",
"88888888888   333,75$,333,333,$8",
"88888888888 oo333,++5$333,333,$8",
"8888888888X+1733,+>%+$,33,333,$8",
"8888888888&1443,&>>>%+$,3,333$88",
"88888888888&&1,&47>%+4&$,$33,$88",
"88888888888&11 <<77+X71&$,3,,$88",
"8888888888&114 <<44&4&57$$,,$888",
"888888888&&155 #;#&+++15&$$$8888",
"888888888&&&&11   +%%++&1&888888",
"8888888888X1147+%>>>>%++1&888888",
"88888888888OX+%%>>>>>%%XX8888888",
"8888888888888XXX+++++XX888888888"
};
