/* XPM */
static char *xpm_[] = {
/* columns rows colors chars-per-pixel */
"32 32 34 1 ",
"  c #151614",
". c #181715",
"X c #2E1E22",
"o c #373737",
"O c #433D33",
"+ c #3A4B2C",
"@ c #464646",
"# c #4E4E4E",
"$ c #544D43",
"% c #505140",
"& c #5F5F5F",
"* c #615847",
"= c #6D6C59",
"- c #647051",
"; c DimGray",
": c #6C6B6B",
"> c gray45",
", c #767676",
"< c #767678",
"1 c #837D60",
"2 c #878B6E",
"3 c #939A79",
"4 c #A4A377",
"5 c #9F9F9F",
"6 c #A49B85",
"7 c #B5B684",
"8 c #B7B7B7",
"9 c #B7B7BB",
"0 c #C4C1B0",
"q c gray85",
"w c gray86",
"e c #D9D9DD",
"r c white",
"t c None",
/* pixels */
"tttttttttttttttttttttttttttttttt",
"tttttttttttttttttttttttttttttttt",
"ttttttttttttt::<9<::tttttttttttt",
"ttttttttttt<9e9rrr9e9<tttttttttt",
"ttttttttt<9errerrrerre9<tttttttt",
"tttttttt<rrere9ere9ererr<ttttttt",
"tttttttt9er99w00000w99re9ttttttt",
"ttttttt<rr900wwwwwww009rr<tttttt",
"ttttttt9r900000000000009r9tttttt",
"tttttt<r90060060006006009r<ttttt",
"tttttt<e06060060006006060e<ttttt",
"ttttt:690606006000600606096:tttt",
"ttttt:600067666666666760006:tttt",
"ttttt:600021147333741120006:tttt",
"ttttt:6000$XX*47774*XX$0006:tttt",
"tttt::60w0XXXX17771XXXX0w06::ttt",
"tttt:6:0w0XXXX17371XXXX0w0:6:ttt",
"tttt:6:000OXX$4+-+4*XXO000:66:tt",
"tttt:6:000.%=4777774=% 006:66:tt",
"tttt:6:000w.+.3+3+3 + 000:6066:t",
"tttt:66000,q         w006:o606:t",
"tttt:6,60>r8q#>+++>#q8006#o606:t",
"ttttt +60#oqrrq>>>wrrq06w8o666:t",
"ttttt +q6oo8qrrrrrrrq86rrr,66:tt",
"tttttt ,,6o,,88qqq88,, 77w,::ttt",
"ttttttt:to#,888888888, 773 ttttt",
"tttttttto##8wqrrrrrq88 -3+ ttttt",
"ttttttto##88qrrrrrrw888   tttttt",
"ttttttto#>8r88qqqqq8w88##otttttt",
"tttttttto>5wrrrrrrqq8###ottttttt",
"ttttttttto>555555>>>#oootttttttt",
"tttttttttto@;;;&ooooottttttttttt"
};
