/* XPM */
static char *xpm_[] = {
/* columns rows colors chars-per-pixel */
"32 32 27 1 ",
"  c #151614",
". c #2E1E22",
"X c #373737",
"o c #3A4B2C",
"O c #464646",
"+ c #4E4E4E",
"@ c #615847",
"# c #647051",
"$ c #6C6B6B",
"% c gray45",
"& c #767676",
"* c #767678",
"= c #837D60",
"- c #999B69",
"; c #939A79",
": c #A4A377",
"> c #9F9F9F",
", c #A49B85",
"< c #B5B684",
"1 c #B7B7B7",
"2 c #B7B7BB",
"3 c #C4C1B0",
"4 c gray85",
"5 c gray86",
"6 c #D9D9DD",
"7 c white",
"8 c None",
/* pixels */
"88888888888888888888888888888888",
"88888888888888888888888888888888",
"888888888888$$$$$**22*8888888888",
"8888888888$$,,32762776*888888888",
"888888888$,335*6772677*$88888888",
"88888888$,335*726633533,$8888888",
"8888888$,333567633355333,$888888",
"8888888$,333*22555553333,$888888",
"888888$,33332763333333333,$88888",
"888888$,333326333,33,33,3,$88888",
"888888$33333*2333,33,33,3,$88888",
"88888$,333333*3,3,33,33,3,$88888",
"88888$,33333333,3,,,<,,;,$888888",
"88888$,333333333,:==:<;# 8888888",
"88888$,3333333333@..@:<# 8888888",
"8888$,3333333,333....=<; 8888888",
"888$,35335333,353....=<; 8888888",
"888$,33333553,353@..@:o# 8888888",
"88$,33333353,,3333==:;# 88888888",
"88$,333,3333$,,3333- o 888888888",
"88$,333,333,$47,333   8888888888",
"88$,333,333$4++,333oo 8888888888",
"88$,333,33,$+%>+,3371+X888888888",
"888$333,3,$+%>>>&,3551&888888888",
"888$,33$,$&4+%>74&,1&&8888888888",
"888$,,3,$&17X+77<< 11&8888888888",
"8888$,,$$75&4&44<< 411&888888888",
"88888$$$&41+++&#;# 551&&88888888",
"8888888&1&++%%+   11&&&&88888888",
"8888888&1++%>>>>%+7411X888888888",
"88888888XX%%>>>>>%%+XO8888888888",
"8888888888XX+++++XXX888888888888"
};
