/* XPM */
static char *xpm_[] = {
/* columns rows colors chars-per-pixel */
"32 32 28 1 ",
"  c #151614",
". c #2E1E22",
"X c #373737",
"o c #3A4B2C",
"O c #464646",
"+ c #4E4E4E",
"@ c #615847",
"# c #647051",
"$ c #6C6B6B",
"% c gray45",
"& c #767676",
"* c #767678",
"= c #7C7C7C",
"- c #837D60",
"; c #999B69",
": c #939A79",
"> c #A4A377",
", c #9F9F9F",
"< c #A49B85",
"1 c #B5B684",
"2 c #B7B7B7",
"3 c #B7B7BB",
"4 c #C4C1B0",
"5 c gray85",
"6 c gray86",
"7 c #D9D9DD",
"8 c white",
"9 c None",
/* pixels */
"99999999999999999999999999999999",
"99999999999999999999999999999999",
"99999999999*33**$$$$$99999999999",
"9999999999*78837834<<$$999999999",
"999999999$*8873887*644<$99999999",
"99999999$<446447738*644<$9999999",
"9999999$<444664447876444<$999999",
"9999999$<44446666633*444<$999999",
"999999$<44444444447834444<$99999",
"999999$<4<44<44<444734444<$99999",
"999999$<4<44<44<4443*44444$99999",
"999999$<4<44<44<4<4*444444<$9999",
"9999999$<:<<1<<<4<44444444<$9999",
"99999999 #:1>--><444444444<$9999",
"99999999 #1>@..@4444444444<$9999",
"99999999 :1-....464<4444444<$999",
"99999999 :1-....464<4664464<<$99",
"99999999 #o>@..@444<44664444<$99",
"999999999 #:>-->444<<4444<44<<$9",
"9999999999 o ;o:444<$4444<44<<$9",
"99999999999     4446$<444<44<<$9",
"99999999999 oo%%44<%%$<4<<<4<<$9",
"9999999999X+288844<,,%$<<<$<<<$9",
"9999999999&2558824<,%+$<<<$<<<$9",
"99999999999&&222&XX+286$<$<<<$99",
"9999999999&&225622&&861o$$<<<$99",
"999999999&2268885&& #11# 9$<$999",
"999999999&&688822%%+ ## &99$9999",
"999999999X2&2228,,%%+  &2&999999",
"999999999X%6888,,%%%++++6&999999",
"9999999999O==,,,%%+++XXXX9999999",
"99999999999OOOXXXXXXX99999999999"
};
