/* XPM */
static char *xpm_[] = {
/* columns rows colors chars-per-pixel */
"32 32 39 1 ",
"  c #302404",
". c #483910",
"X c #1F1600",
"o c #503F13",
"O c #59440F",
"+ c #6C6B6B",
"@ c #767678",
"# c #B7B7BB",
"$ c #D9D9DD",
"% c white",
"& c gray86",
"* c #C4C1B0",
"= c #261B00",
"- c #A49B85",
"; c #B5B684",
": c #878B6E",
"> c #837D60",
", c #A4A377",
"< c #939A79",
"1 c #544D43",
"2 c #2E1E22",
"3 c #615847",
"4 c #433D33",
"5 c #3A4B2C",
"6 c #647051",
"7 c #181715",
"8 c #505140",
"9 c #6D6C59",
"0 c gray85",
"q c #151614",
"w c #767676",
"e c #373737",
"r c gray45",
"t c #B7B7B7",
"y c #4E4E4E",
"u c #9F9F9F",
"i c #464646",
"p c DimGray",
"a c #5F5F5F",
/* pixels */
" ...........   ... X  ..  oooo. ",
" ..OOOO....ooo.....X .o......ooo",
" ...ooooooooo++@#@++ ooooo.OO...",
"..  ...   o@#$#%%%#$#@.OOOOooo..",
".....  oo@#$%%$%%%$%%$#@........",
"......OO@%%$%$#$%$#$%$%%@ooo....",
"    ..  #$%##&*****&##%$#. ooooo",
"====XXX@%%#**&&&&&&&**#%%@====XX",
"  ...oo#%#*************#%# X .. ",
".oooo.@%#**-**-***-**-**#%@= ...",
" .... @$*-*-**-***-**-*-*$@= ...",
".....+-#*-*-**-***-**-*-*#-+ooo.",
".   .+-***-;---------;-***-+. ..",
" ...o+-***:>>,;<<<;,>>:***-+... ",
".OOOO+-***1223,;;;,3221***-+ .. ",
"    ++-*&*2222>;;;>2222*&*-++...",
"X=X=+-+*&*2222>;<;>2222*&*+-+XX=",
" ...+-+***4223,565,3224***+--+  ",
"oooo+-+***789,;;;;;,987**-+--+..",
".   +-+***0q5q<5<5<q5q***+-*--+ ",
"..Oo+--***w0qqqqqqqqq0**-+e-*-+.",
".. O+-w-*r%t0yr555ry0t**-ye-*-+.",
".... q5-*ye0%%0rrr0%%0*-0te---+.",
". ..oq50-eet0%%%%%%%0t-%%%w--+..",
"..oo..qww-ewwtt000ttwwq;;0w++...",
"..     +.eywtttttttttwq;;<q...  ",
"XX======eyyt00%%%%%0ttq6<5qXXXXX",
"   ..ooeyytt0%%%%%%0tttqqq..  . ",
"..ooooOeyrt%tt00000t0ttyyeo.... ",
".oooo...eru0%%%%%%00tyyyeO.. .. ",
" .oOOO.  eruuuuuurrryeee..ooo.. ",
".oo.. ..ooeipppaeeeeeOO..  ...  "
};
