/* XPM */
static char *xpm_[] = {
/* columns rows colors chars-per-pixel */
"32 32 35 1 ",
"  c #302404",
". c #483910",
"X c #1F1600",
"o c #503F13",
"O c #59440F",
"+ c #767678",
"@ c #B7B7BB",
"# c #6C6B6B",
"$ c #D9D9DD",
"% c white",
"& c #C4C1B0",
"* c #A49B85",
"= c gray86",
"- c #261B00",
"; c #939A79",
": c #B5B684",
"> c #151614",
", c #647051",
"< c #A4A377",
"1 c #837D60",
"2 c #615847",
"3 c #2E1E22",
"4 c #3A4B2C",
"5 c #999B69",
"6 c gray85",
"7 c gray45",
"8 c #373737",
"9 c #4E4E4E",
"0 c #B7B7B7",
"q c #9F9F9F",
"w c #767676",
"e c #7C7C7C",
"r c DimGray",
"t c #5F5F5F",
"y c #464646",
/* pixels */
" ...........   ... X  ..  oooo. ",
" ..OOOO....+@@++#####.o......ooo",
" ...oooooo+$%%@$%@&**##ooo.OO...",
"..  ...  #+%%$@%%$+=&&*#OOOooo..",
".....  o#*&&=&&$$@%+=&&*#.......",
"......O#*&&&==&&&$%$=&&&*#oo....",
"    .. #*&&&&=====@@+&&&*# ooooo",
"----XX#*&&&&&&&&&&$%@&&&&*#---XX",
"  ...o#*&*&&*&&*&&&$@&&&&*#X .. ",
".oooo.#*&*&&*&&*&&&@+&&&&&#- ...",
" .... #*&*&&*&&*&*&+&&&&&&*# ...",
".......#*;**:***&*&&&&&&&&*#ooo.",
".   ..oo>,;:<11<*&&&&&&&&&*#. ..",
" ...oo  >,:<2332&&&*&&&&&&&#... ",
".OOOOOO.>;:13333&=&*&&&&&=&*#.. ",
"        >;:13333&=&*&===&&&*#...",
"X-X--XX->,4<2332&&&*&&=&&&&&#XX-",
" ..... X.>,;<11&&&&**&&&&*&&*#  ",
"ooooo. X  >4>54&&&&*#&&&&*&&*#..",
".   OO -.oo>>>>&&&*6#*&&&*&&*#. ",
"..Ooo. -...>447&&*%7#*&&&*&&*#..",
".. O.. X O890%%&*%qq7#*&*#&&*# .",
".... o.- .w066%%*6q79#***#&**#..",
". ..ooo-oooww000w89%68#*#***#...",
"..oo...X ..w00660w6%6w0##***#...",
"..     X..w006%%6>::;>6%#**#..  ",
"XX-------ww066%%0>::,>06w##XXXXX",
"   ..oooow0ww000%7>>>99ww...  . ",
"..ooooOOo8w066%%qqq79990woo.... ",
".oooo....o88977qqqq77988oO.. .. ",
" .oOOO.  ooo888eert888....ooo.. ",
".oo.. ..ooo....yyyy.OOO..  ...  "
};
