/* XPM */
static char *xpm_[] = {
/* columns rows colors chars-per-pixel */
"32 32 33 1 ",
"  c #302404",
". c #483910",
"X c #1F1600",
"o c #503F13",
"O c #59440F",
"+ c #767678",
"@ c #B7B7BB",
"# c #6C6B6B",
"$ c #D9D9DD",
"% c white",
"& c #C4C1B0",
"* c #A49B85",
"= c gray86",
"- c #261B00",
"; c #939A79",
": c #B5B684",
"> c #151614",
", c #647051",
"< c #A4A377",
"1 c #837D60",
"2 c #615847",
"3 c #2E1E22",
"4 c #3A4B2C",
"5 c #999B69",
"6 c gray85",
"7 c gray45",
"8 c #373737",
"9 c #4E4E4E",
"0 c #B7B7B7",
"q c #9F9F9F",
"w c #767676",
"e c #464646",
"r c #7C7C7C",
/* pixels */
" ...........   ... X  ..  oooo. ",
" ..OOOO....ooo.....X .o......ooo",
" ...ooooooo+@@++#####ooooo.OO...",
"..  ...   +$%%@$%@&**##OOOOooo..",
".....  oo#+%%$@%%$+=&&*#........",
"......OO#*&&=&&$$@%+=&&*#ooo....",
"    .. #*&&&==&&&$%$=&&&*# ooooo",
"----XXX#*&&&&=====@@+&&&*#----XX",
"  ...o#*&&&&&&&&&&$%@&&&&*#X .. ",
".oooo.#*&*&&*&&*&&&$@&&&&*#- ...",
" .... #*&*&&*&&*&&&@+&&&&&#- ...",
"......#*&*&&*&&*&*&+&&&&&&*#ooo.",
".   ..o#*;**:***&*&&&&&&&&*#. ..",
" ...oo  >,;:<11<*&&&&&&&&&*#... ",
".OOOOOO.>,:<2332&&&&&&&&&&*# .. ",
"        >;:13333&=&*&&&&&&&*#...",
"X-X--XX->;:13333&=&*&==&&=&**#X-",
" ..... X>,4<2332&&&*&&==&&&&*#  ",
"ooooo. X >,;<11<&&&**&&&&*&&**#.",
".   OO -.o>4>54;&&&*#&&&&*&&**# ",
"..Ooo. -...>>>>>&&&6#*&&&*&&**#.",
".. O.. X OO>4477&&*77#*&***&**#.",
".... o.- .890%%%&&*qq7#***#***#.",
". ..ooo-oow066%%0&*q79#***#***#.",
"..oo...X ..ww000w8890%6#*#***#..",
"..     X..ww006600ww%6:4##***#  ",
"XX-------w006%%%6ww>,::,>-#*#XXX",
"   ..ooooww6%%%00779>,,>w..#  . ",
"..ooooOOo80w000%qq779>>w0wo.... ",
".oooo....876%%%qq77799996w.. .. ",
" .oOOO.  oerrqqq779998888.ooo.. ",
".oo.. ..oooeee8888888OO..  ...  "
};
