/* XPM */
static char *xpm_[] = {
/* columns rows colors chars-per-pixel */
"32 32 38 1 ",
"  c #302404",
". c #483910",
"X c #1F1600",
"o c #503F13",
"O c #59440F",
"+ c #6C6B6B",
"@ c #767678",
"# c #B7B7BB",
"$ c #D9D9DD",
"% c white",
"& c gray86",
"* c #C4C1B0",
"= c #261B00",
"- c #A49B85",
"; c #B5B684",
": c #939A79",
"> c #878B6E",
", c #837D60",
"< c #A4A377",
"1 c #544D43",
"2 c #2E1E22",
"3 c #615847",
"4 c #433D33",
"5 c #3A4B2C",
"6 c #647051",
"7 c #181715",
"8 c #505140",
"9 c #6D6C59",
"0 c gray85",
"q c #151614",
"w c #767676",
"e c #373737",
"r c #B7B7B7",
"t c #4E4E4E",
"y c gray45",
"u c #9F9F9F",
"i c DimGray",
"p c #464646",
/* pixels */
" ...........   ... X  ..  oooo. ",
" ..OOOO....oo++@#@++ .o......ooo",
" ...ooooooo@#$#%%%#$#@oooo.OO...",
"..  ...  @#$%%$%%%$%%$#@OOOooo..",
".....  o@%%$%$#$%$#$%$%%@.......",
"......OO#$%##&*****&##%$#ooo....",
"    .. @%%#**&&&&&&&**#%%@ ooooo",
"====XXX#%#*************#%#====XX",
"  ...o@%#**-**-***-**-**#%@X .. ",
".oooo.@$*-*-**-***-**-*-*$@= ...",
" ....+-#*-*-**-***-**-*-*#-+ ...",
".....+-***-;--:---:--;-***-+ooo.",
".   .+-***>,,<;:::;<,,>***-+. ..",
" ...o+-***1223<;;;<3221***-+... ",
".OOO++-*&*2222,;;;,2222*&*-++.. ",
"    +-+*&*2222,;:;,2222*&*+-+...",
"X=X+--+***4223<565<3224***+--+X=",
" ..+--+-**789<;;;;;<987**-+--+  ",
"ooo+-*+-**0q5q:5:5:q5q0**-+*-+..",
".  +-*-+**w0qqqqqqqqq0w**+-*-+. ",
"..O+-*-e-*%r0ty555yt0r%*-e-*-+..",
".. +--ey-*e0%%0yyy0%%0e*-ye--+ .",
"....+-e0%-er0%%%%%%%0re-%0e-+...",
". ..oq50%rewwrr000rrwwer%05qo...",
"..oo.q;;5qtwrrrrrrrrrwtq5;;q....",
"..   q;:qttrr0%%%%%0rrttq:;q..  ",
"XX====qqttrr0%%%%%%%0rrttqqXXXXX",
"   ..ooetyr0rr00000rr0ryte..  . ",
"..ooooOOeyy00%%%%%%%00yyeoo.... ",
".oooo....eyyuuuuuuuuuyyeoO.. .. ",
" .oOOO.  oeeiiieeeiiiee...ooo.. ",
".oo.. ..ooo.ppp X pppOO..  ...  "
};
