/* XPM */
static char *xpm_[] = {
/* columns rows colors chars-per-pixel */
"32 32 36 1 ",
"  c #302404",
". c #483910",
"X c #1F1600",
"o c #503F13",
"O c #59440F",
"+ c #6C6B6B",
"@ c #767678",
"# c #B7B7BB",
"$ c #A49B85",
"% c #C4C1B0",
"& c white",
"* c #D9D9DD",
"= c gray86",
"- c #261B00",
"; c #B5B684",
": c #939A79",
"> c #A4A377",
", c #837D60",
"< c #647051",
"1 c #151614",
"2 c #615847",
"3 c #2E1E22",
"4 c #3A4B2C",
"5 c #999B69",
"6 c gray85",
"7 c gray45",
"8 c #9F9F9F",
"9 c #B7B7B7",
"0 c #4E4E4E",
"q c #373737",
"w c #767676",
"e c #503D0C",
"r c #5F5F5F",
"t c DimGray",
"y c #7C7C7C",
"u c #464646",
/* pixels */
" ...........   ... X  ..  oooo. ",
" ..OOOO....o+++++@@##@o......ooo",
" ...oooooo++$$%#&*#&&*@ooo.OO...",
"..  ...  +$%%=@*&&#*&&@+OOOooo..",
".....  o+$%%=@&#**%%=%%$+.......",
"......O+$%%%=*&*%%%==%%%$+oo....",
"    .. +$%%%@##=====%%%%$+ ooooo",
"----XX+$%%%%#&*%%%%%%%%%%$+---XX",
"  ...o+$%%%%#*%%%$%%$%%$%$+X .. ",
".oooo.+%%%%%@#%%%$%%$%%$%$+- ...",
" ....+$%%%%%%@%$%$%%$%%$%$+- ...",
".....+$%%%%%%%%$%$$$;$$:$+.-ooo.",
".   .+$%%%%%%%%%$>,,>;:<1O.X. ..",
" ...o+%%%%%%%$%%%2332>;<1..-... ",
".OOO+$%=%%%%%$%=%3333,;:1. X .. ",
"    +$%%%===%$%=%3333,;:1  X ...",
"X-X-+%%%%%=%%$%%%2332>4<1XX--XX-",
" ..+$%%$%%%%$$%%%%,,>:<1O.      ",
"ooo+$%%$%%%%+$%%%%45141...ooo...",
".  +$%%$%%%$+6$%%%1111.o.OOO... ",
"..O+$%%$%%%$+7&$%%7441oooo..O...",
".. +$%%+$%$+788&$%&&90q..o...  .",
"...+$$%+$$$+0786$&&669woo.ooo...",
". ..+$$$+$+q6&0qw999wwO    .o...",
"..oo+$$$++9w6&6w96699w....O.....",
"..   +$$+&61:;;16&&699w.......  ",
"XX----++w691<;;19&&669wwX--XXXXX",
"   ..oooww001117&999ww9w....  . ",
"..ooooOOw90007888&&669wqooo.... ",
".oooo....qq0778888770qqeoO.. .. ",
" .oOOO.  ooqqqrtyyqqq.....ooo.. ",
".oo.. ..ooo...uuuu..OOO..  ...  "
};
