/* XPM */
static char *xpm_[] = {
/* columns rows colors chars-per-pixel */
"32 32 32 1 ",
"  c #302404",
". c #483910",
"X c #1F1600",
"o c #503F13",
"O c #59440F",
"+ c #767678",
"@ c #B7B7BB",
"# c #6C6B6B",
"$ c #D9D9DD",
"% c white",
"& c #C4C1B0",
"* c #A49B85",
"= c gray86",
"- c #261B00",
"; c #939A79",
": c #B5B684",
"> c #151614",
", c #647051",
"< c #A4A377",
"1 c #837D60",
"2 c #615847",
"3 c #2E1E22",
"4 c #3A4B2C",
"5 c #999B69",
"6 c gray85",
"7 c #4E4E4E",
"8 c #373737",
"9 c #B7B7B7",
"0 c #9F9F9F",
"q c gray45",
"w c #767676",
"e c #464646",
/* pixels */
" ...........   ... X  ..  oooo. ",
" ..OOOO....ooo.....X .o......ooo",
" ...ooooooo+@@++#####ooooo.OO...",
"..  ...   +$%%@$%@&**##OOOOooo..",
".....  oo#+%%$@%%$+=&&*#........",
"......OO#*&&=&&$$@%+=&&*#ooo....",
"    .. #*&&&==&&&$%$=&&&*# ooooo",
"----XXX#*&&&&=====@@+&&&*#----XX",
"  ...o#*&&&&&&&&&&$%@&&&&*#X .. ",
".oooo.#*&*&&*&&*&&&$@&&&&*#- ...",
" .... #*&*&&*&&*&&&@+&&&&&#- ...",
"......#*&*&&*&&*&*&+&&&&&&*#ooo.",
".   ..o#*;**:***&*&&&&&&&&*#. ..",
" ...oo  >,;:<11<*&&&&&&&&&*#... ",
".OOOOOO.>,:<2332&&&&&&&&&&*# .. ",
"        >;:13333&&&*&&&&&&&*#...",
"X-X--XX->;:13333&=&*&&&=&&=&*#X-",
" ..... X>,4<2332&=&*&==&&&&&*#  ",
"ooooo. X >,;<11&&&&**&=&&&&&&*#.",
".   OO -.o>4>5&&&&**#&&&&*&&&*# ",
"..Ooo. -...>>>&&&*%6#*&&&*&&&*#.",
".. O.. X OO>44&&&*776#&&&*&&&*#.",
".... o.- .879%&&*70q7#*&&*&&&*#.",
". ..ooo-oow966&*w000q7#*&*&&&#..",
"..oo...X ..ww9*w6%0q76w#*#&&*#..",
"..     X.. w99>::%%78%9w#*&**#  ",
"XX--------w996>::66w6w6%##**#XXX",
"   ..ooooww966>,;,w77796w###  . ",
"..ooooOOowwww99>>>7qq77w9wo.... ",
".oooo....o8996%7q0000q779w.. .. ",
" .oOOO.  ooe87qq00000qq88.ooo.. ",
".oo.. ..ooo..8887777788..  ...  "
};
