/* XPM */
static char *xpm_[] = {
/* columns rows colors chars-per-pixel */
"32 32 26 1 ",
"  c #302404",
". c #483910",
"X c #1F1600",
"o c #503F13",
"O c #59440F",
"+ c #6C6B6B",
"@ c #767678",
"# c #B7B7BB",
"$ c #D9D9DD",
"% c white",
"& c #C4C1B0",
"* c #261B00",
"= c gray86",
"- c #A49B85",
"; c #151614",
": c #939A79",
"> c #4E4E4E",
", c #373737",
"< c #647051",
"1 c gray45",
"2 c gray85",
"3 c #B7B7B7",
"4 c #9F9F9F",
"5 c #464646",
"6 c #7C7C7C",
"7 c #5F5F5F",
/* pixels */
" ...........   ... X  ..  oooo. ",
" ..OOOO....ooo.....X .o......ooo",
" ...ooooooooo++@#@++ ooooo.OO...",
"..  ...   o@#$#%%%#$#@.OOOOooo..",
".....  oo@#$%%$%$%$%%$#@........",
"......OO@%%$%$#####$%$%%@ooo....",
"    ..  #$%##&&&&&&&##%$#. ooooo",
"****XXX@$#&=&&&&&&&&&=&#$@****XX",
"  ...o@##&&==&&&&&&&==&&#$@X .. ",
".oooo.@#&&&&=========&&&&#@* ...",
" .... +#&&&&&=======&&&&&#+* ...",
".....+-&&&&&&&&&&&&&&&&&&&-+ooo.",
".   .+-&&&&&&&&&&&&&&&&&&&-+. ..",
" ...o+-&&&&&&&&&&&&&&&&&&&-+... ",
".OOOO+-&&&&&&&&&&&&&&&&&&&-+ .. ",
"    +-&&&&&&&&&&&&&&&&&&&&--+...",
"X*X*+&&&&&&&&&&&&&&&&&&&&&&-+XX*",
" ..+-&&=&&&&&&&&&&&&&&&=&&&-+   ",
"ooo+&&&&==&&&&&&&&&&&==&-&&-+...",
". +-&&-&&=&-&=====&&&=&&-&&-+.. ",
"..+-&&-&&&&-&&===&&-&&&&-&&-+...",
"..+-&&--&&&-&&&&&&&-&&&--&--+  .",
"..+-&---&&--&&&&&&-&&&---&-+o...",
". .+---+-----&&&-------+---+;...",
"..oo+-++---+----------++--+:;...",
"..   + X+--+-----+--++>,++:<;.  ",
"XX******,++1+---+%++%>>>,;;;XXXX",
"   ..oo,>>112+++23%%21>>>,..  . ",
"..ooooO,>11143324133411>>,o.... ",
".oooo...,11444%%441%%1>>,O.. .. ",
" .oOOO.  ,1444444111>,,,..ooo.. ",
".oo.. ..oo,56667,,,,,OO..  ...  "
};
