/* XPM */
static char *xpm_[] = {
/* columns rows colors chars-per-pixel */
"32 32 26 1 ",
"  c #302404",
". c #483910",
"X c #1F1600",
"o c #503F13",
"O c #59440F",
"+ c #6C6B6B",
"@ c #767678",
"# c #B7B7BB",
"$ c #D9D9DD",
"% c white",
"& c #C4C1B0",
"* c #261B00",
"= c gray86",
"- c #A49B85",
"; c #151614",
": c #939A79",
"> c #647051",
", c #373737",
"< c #4E4E4E",
"1 c gray45",
"2 c gray85",
"3 c #B7B7B7",
"4 c #9F9F9F",
"5 c #5F5F5F",
"6 c #7C7C7C",
"7 c #464646",
/* pixels */
" ...........   ... X  ..  oooo. ",
" ..OOOO....ooo.....X .o......ooo",
" ...ooooooooo++@#@++ ooooo.OO...",
"..  ...   o@#$#%%%#$#@.OOOOooo..",
".....  oo@#$%%$%$%$%%$#@........",
"......OO@%%$%$#####$%$%%@ooo....",
"    ..  #$%##&&&&&&&##%$#. ooooo",
"****XXX@$#&=&&&&&&&&&=&#$@****XX",
"  ...o@$#&&==&&&&&&&==&&##@X .. ",
".oooo.@#&&&&=========&&&&#@* ...",
" .... +#&&&&&=======&&&&&#+* ...",
".....+-&&&&&&&&&&&&&&&&&&&-+ooo.",
".   .+-&&&&&&&&&&&&&&&&&&&-+. ..",
" ...o+-&&&&&&&&&&&&&&&&&&&-+... ",
".OOOO+-&&&&&&&&&&&&&&&&&&&-+ .. ",
"    +--&&&&&&&&&&&&&&&&&&&&-+...",
"X*X*+-&&&&&&&&&&&&&&&&&&&&&&+XX*",
" ...+-&&&=&&&&&&&&&&&&&&&=&&-+  ",
"oooo+-&&-&==&&&&&&&&&&&==&&&&+..",
".   +-&&-&&=&&&=====&-&=&&-&&-+ ",
"..Oo+-&&-&&&&-&&===&&-&&&&-&&-+.",
".. O+--&--&&&-&&&&&&&-&&&--&&-+.",
".... +-&---&&&-&&&&&&--&&---&-+.",
". ..;+---+-------&&&-----+---+..",
"..oo;:+--++----------+---++-+...",
"..  ;>:++,<++--+-----+--+..+..  ",
"XX***;;;,<<<%++%+---+1++,**XXXXX",
"   ..oo,<<<12%%32+++211<<,..  . ",
"..ooooO,<<11433142334111<,o.... ",
".oooo...,<<1%%144%%44411,O.. .. ",
" .oOOO.  ,,,<1114444441,..ooo.. ",
".oo.. ..ooo.,,,,,56667,..  ...  "
};
