/* XPM */
static char *xpm_[] = {
/* columns rows colors chars-per-pixel */
"32 32 26 1 ",
"  c #302404",
". c #483910",
"X c #1F1600",
"o c #503F13",
"O c #59440F",
"+ c #6C6B6B",
"@ c #767678",
"# c #B7B7BB",
"$ c #D9D9DD",
"% c white",
"& c #C4C1B0",
"* c gray86",
"= c #261B00",
"- c #A49B85",
"; c #151614",
": c #3A4B2C",
"> c #B5B684",
", c #939A79",
"< c #4E4E4E",
"1 c #B7B7B7",
"2 c gray45",
"3 c gray85",
"4 c #373737",
"5 c #9F9F9F",
"6 c DimGray",
"7 c #464646",
/* pixels */
" ...........   ... X  ..  oooo. ",
" ..OOOO....oo++@#@++ .o......ooo",
" ...ooooooo@#$#%%%#$#@oooo.OO...",
"..  ...  @#$%%$%$%$%%$#@OOOooo..",
".....  o@%%$%$#####$%$%%@.......",
"......OO#$%##&&&&&&&##%$#ooo....",
"    .. @$#&*&&&&&&&&&*&#$@ ooooo",
"====XX@$#&&**&&&&&&&**&&##@===XX",
"  ...o@#&&&&*********&&&&#@X .. ",
".oooo.+#&&&&&*******&&&&&#+= ...",
" ....+-&&&&&&&&&&&&&&&&&&&-+ ...",
".....+-&&&&&&&&&&&&&&&&&&&-+ooo.",
".   .+-&&&&&&&&&&&&&&&&&&&-+. ..",
" ...o+-&&&&&&&&&&&&&&&&&&&-+... ",
".OOO+--&&&&&&&&&&&&&&&&&&&--+.. ",
"    +-&&&&&&&&&&&&&&&&&&&&&-+...",
"X=X+--&&*&&&&&&&&&&&&&&&*&&--+X=",
" ..+-&&-&**&&&&&&&&&&&**&-&&-+  ",
"ooo+-&&-&&*&-&*****&-&*&&-&&-+..",
".  +-&&--&&&-&&***&&-&&&--&&-+. ",
"..O+--&--&&&-&&&&&&&-&&&--&--+..",
".. +------&&--&&&&&--&&------+ .",
"....+---+------&&&------+---+...",
". ..o+--++---+-----+---++--+o...",
"..oo.;++:;+--+-----+--+;:++;....",
"..   ;>,;<<++1+---+1++<<;,>;..  ",
"XX====;;<<223%%+++%%322<<;;XXXXX",
"   ..oo4<222511323115222<4..  . ",
"..ooooOO42255%%252%%55224oo.... ",
".oooo....425555555555524oO.. .. ",
" .oOOO.  o4466644466644...ooo.. ",
".oo.. ..ooo.777 X 777OO..  ...  "
};
