/* XPM */
static char *xpm_[] = {
/* columns rows colors chars-per-pixel */
"32 32 39 1 ",
"  c #302404",
". c #483910",
"X c #1F1600",
"o c #503F13",
"O c #59440F",
"+ c #6C6B6B",
"@ c #767678",
"# c #B7B7BB",
"$ c #D9D9DD",
"% c white",
"& c gray86",
"* c #C4C1B0",
"= c #261B00",
"- c #A49B85",
"; c #B5B684",
": c #878B6E",
"> c #837D60",
", c #A4A377",
"< c #939A79",
"1 c #544D43",
"2 c #2E1E22",
"3 c #615847",
"4 c #433D33",
"5 c #3A4B2C",
"6 c #647051",
"7 c #181715",
"8 c #505140",
"9 c #6D6C59",
"0 c #151614",
"q c gray85",
"w c #373737",
"e c #767676",
"r c #4E4E4E",
"t c #B7B7B7",
"y c gray45",
"u c #9F9F9F",
"i c #5F5F5F",
"p c DimGray",
"a c #464646",
/* pixels */
" ...........   ... X  ..  oooo. ",
" ..OOOO....ooo.....X .o......ooo",
" ...ooooooooo++@#@++ ooooo.OO...",
"..  ...   o@#$#%%%#$#@.OOOOooo..",
".....  oo@#$%%$%%%$%%$#@........",
"......OO@%%$%$#$%$#$%$%%@ooo....",
"    ..  #$%##&*****&##%$#. ooooo",
"====XXX@%%#**&&&&&&&**#%%@====XX",
"  ...oo#%#*************#%# X .. ",
".oooo.@%#**-**-***-**-**#%@= ...",
" .... @$*-*-**-***-**-*-*$@= ...",
".....+-#*-*-**-***-**-*-*#-+ooo.",
".   .+-***-;---------;-***-+. ..",
" ...o+-***:>>,;<<<;,>>:***-+... ",
".OOOO+-***1223,;;;,3221***-+ .. ",
"    ++-*&*2222>;;;>2222*&*-++...",
"X=X=+-+*&*2222>;<;>2222*&*+-+XX=",
" ..+--+***4223,565,3224***+-+   ",
"ooo+--+-**789,;;;;;,987***+-+...",
". +--*-+***050<5<5<050q***+-+.. ",
"..+-*-w+-**q000000000qe***--+...",
"..+-*-wr-**tqry555yrqt%y*-e-+  .",
"..+---wtq-*q%%qyyyq%%qwr*-50o...",
". .+--e%%%-tq%%%%%%%qtww-q50o...",
"..oo++eq;;0eettqqqtteew-ee0.....",
"..    0<;;0ettttttttterw.+....  ",
"XX====05<60ttq%%%%%qqtrrw==XXXXX",
"   ..oo000tttq%%%%%%qttrrw..  . ",
"..ooooOwrrttqtqqqqqtt%tyrwo.... ",
".oooo...wrrrtqq%%%%%%quywO.. .. ",
" .oOOO.  wwwryyyuuuuuuyw..ooo.. ",
".oo.. ..ooo.wwwwwipppaw..  ...  "
};
