/* XPM */
static char *xpm_[] = {
/* columns rows colors chars-per-pixel */
"32 32 33 1 ",
"  c #302404",
". c #483910",
"X c #1F1600",
"o c #503F13",
"O c #59440F",
"+ c #6C6B6B",
"@ c #767678",
"# c #B7B7BB",
"$ c #A49B85",
"% c #C4C1B0",
"& c white",
"* c #D9D9DD",
"= c gray86",
"- c #261B00",
"; c #B5B684",
": c #939A79",
"> c #A4A377",
", c #837D60",
"< c #647051",
"1 c #151614",
"2 c #615847",
"3 c #2E1E22",
"4 c #3A4B2C",
"5 c #999B69",
"6 c gray85",
"7 c gray45",
"8 c #9F9F9F",
"9 c #B7B7B7",
"0 c #4E4E4E",
"q c #373737",
"w c #767676",
"e c #7C7C7C",
"r c #464646",
/* pixels */
" ...........   ... X  ..  oooo. ",
" ..OOOO....ooo.....X .o......ooo",
" ...oooooooo+++++@@##@oooo.OO...",
"..  ...   ++$$%#&*#&&*@OOOOooo..",
".....  oo+$%%=@*&&#*&&@+........",
"......OO+$%%=@&#**%%=%%$+ooo....",
"    .. +$%%%=*&*%%%==%%%$+ ooooo",
"----XXX+$%%%@##=====%%%%$+----XX",
"  ...o+$%%%%#&*%%%%%%%%%%$+X .. ",
".oooo.+$%%%%#*%%%$%%$%%$%$+- ...",
" .... +%%%%%@#%%%$%%$%%$%$+- ...",
".....+$%%%%%%@%$%$%%$%%$%$+-ooo.",
".   .+$%%%%%%%%$%$$$;$$:$+.X. ..",
" ...o+$%%%%%%%%%$>,,>;:<1..-... ",
".OOOO+$%%%%%%%%%%2332>;<1. X .. ",
"    +$%%%%%%%$%=%3333,;:1  X ...",
"X-X+$$%=%%==%$%=%3333,;:1XX--XX-",
" ..+$%%%%==%%$%%%2332>4<1.      ",
"oo+$$%%$%%%%$$%%%>,,>:<1..ooo...",
". +$$%%$%%%%+$%%%:45141o.OOO... ",
"..+$$%%$%%%$+6%%%11111oooo..O...",
"..+$$%$$$%$+77$%%77441...o...  .",
"..+$$$+$$$+788$%%&&&90qoo.ooo...",
". +$$$+$$$+078$%9&&669w    .o...",
"..o+$$$+$+6&90qqw999ww....O.....",
".. +$$$++4;6&ww996699ww.......  ",
"XX--+$+-1<;;<1ww6&&&699wX--XXXXX",
"   ..+oow1<<107799&&&6ww....  . ",
"..ooooOw9w1107788&999w9qooo.... ",
".oooo..w6000077788&&&67qoO.. .. ",
" .oOOO. qqqq00077888eer...ooo.. ",
".oo.. ..ooo.qqqqqqqrrrO..  ...  "
};
