/* XPM */
static char *bf2f861c425e4e65bcf70bdc02b278b3[] = {
/* columns rows colors chars-per-pixel */
"32 32 11 1 ",
"  c #302404",
". c #483910",
"X c #1F1600",
"o c #503F13",
"O c #59440F",
"+ c #261B00",
"@ c black",
"# c #A1CEDD",
"$ c #438499",
"% c #503D0C",
"& c white",
/* pixels */
" ...........   ... X  ..  oooo. ",
" ..OOOO....ooo.....X .o......ooo",
" ...ooooooooo ..   X ooooo.OO...",
"..  ...   o.... .. + ..OOOOooo..",
".....  ooo.   .... +  ..........",
"......OOO...@@@@@@@@@@oooooo....",
"    ..     .@########@oo . ooooo",
"++++XXX++++X@@@@@@@@@@XX++++++XX",
"  ...oo  .    @$$$$@.  ..  X .. ",
".oooo.........@$$$$@ooo..  + ...",
" ....  O..ooo@@@@@@@@..oo. + ...",
"........O...@@$$$$$$@@ ....+ooo.",
".   ..oo..o@@$$$$$$$$@@OOO.X. ..",
" ...oo     @$$$$$$$$$$@. ..+... ",
".OOOOOO...@@$$$$$$$$$$@@.. X .. ",
"         @@$$$$$$$$$$$$@@  X ...",
"X+X++XX++@$$$$$$$$$$$$$$@XX++XX+",
" ..... X.@@@@@@@@@@@@@@@@.      ",
"ooooo. X @$$$$$$$$$$$$$$@.ooo...",
".   OO +.@@@@@@@@@@@@@@@@OOO... ",
"..Ooo. +.@$$$$$$$$$$$$$$@o..O...",
".. O.. X @@@@@@@@@@@@@@@@o...  .",
".... o.+ @$$$$$$$$$$$$$$@.ooo...",
". ..ooo+o@@$$$$$$$$$$$$@@  .o...",
"..oo...X .@$$$$$$$$$$$$@..O.....",
"..     X..@@$$$$$$$$$$@@......  ",
"XX+++++++++@$$$$$$$$$$@XX++XXXXX",
"   ..ooooo.@@$$$$$$$$@@.....  . ",
"..ooooOOooo.@@@@@@@@@@Ooooo.... ",
".oooo....ooo .. X oo%%%%oO.. .. ",
" .oOOO.  oooo.. X o.o.....ooo.. ",
".oo.. ..ooo.... X ..OOO..  ...  "
};
