/* XPM */
static char *_fe20f313c914dd6ae6d03e8a2cf871a[] = {
/* columns rows colors chars-per-pixel */
"32 32 11 1 ",
"  c #302404",
". c #483910",
"X c #1F1600",
"o c #503F13",
"O c #59440F",
"+ c #261B00",
"@ c black",
"# c #A1CEDD",
"$ c #438499",
"% c #503D0C",
"& c white",
/* pixels */
" ...........   ... X  ..  oooo. ",
" ..OOOO....ooo.....X .o......ooo",
" ...ooooooooo ..   X ooooo.OO...",
"..  ...   o.... .. + ..OOOOooo..",
".....  ooo.   .... +  ..........",
"......OOO...... .. X..oooooo....",
"    ..     ..     .X  oo . ooooo",
"++++XXX++++XXXXX++XXXXXX++++++XX",
"  ...oo  .  @@@@@@@@@@ ..  X .. ",
".oooo.......@########@o..  + ...",
" ....  O..oo@@@@@@@@@@.oo. + ...",
"........O.....@$$$$@   ....+ooo.",
".   ..oo..oo..@$$$$@OOOOOO.X. ..",
" ...oo      .@@@@@@@@... ..+... ",
".OOOOOO....O@@$$$$$$@@ ... X .. ",
"         oo@@$$$$$$$$@@.   X ...",
"X+X++XX++++@$$$$$$$$$$@XXXX++XX+",
" ..... X..@@$$$$$$$$$$@@O.      ",
"ooooo. X @@$$$$$$$$$$$$@@.ooo...",
".   OO +.@$$$$$$$$$$$$$$@OOO... ",
"..Ooo. +.@@@@@@@@@@@@@@@@o..O...",
".. O.. X @$$$$$$$$$$$$$$@o...  .",
".... o.+ @@@@@@@@@@@@@@@@.ooo...",
". ..ooo+o@$$$$$$$$$$$$$$@  .o...",
"..oo...X @@@@@@@@@@@@@@@@.O.....",
"..     X.@$$$$$$$$$$$$$$@.....  ",
"XX+++++++@@$$$$$$$$$$$$@@++XXXXX",
"   ..ooooo@$$$$$$$$$$$$@....  . ",
"..ooooOOoo@@$$$$$$$$$$@@ooo.... ",
".oooo....oo@$$$$$$$$$$@%oO.. .. ",
" .oOOO.  oo@@$$$$$$$$@@...ooo.. ",
".oo.. ..ooo.@@@@@@@@@@O..  ...  "
};
