/* XPM */
static char *_bf81fcb0f9d4cbc887b728a1766fc62[] = {
/* columns rows colors chars-per-pixel */
"32 32 11 1 ",
"  c #302404",
". c #483910",
"X c #1F1600",
"o c #503F13",
"O c #59440F",
"+ c black",
"@ c #A1CEDD",
"# c #438499",
"$ c #261B00",
"% c #503D0C",
"& c white",
/* pixels */
" ...........   ... X  ..  oooo. ",
" ..OOOO....ooo.....X .o......ooo",
" ...oooooooo++++++++++oooo.OO...",
"..  ...   o.+@@@@@@@@+.OOOOooo..",
".....  ooo. ++++++++++..........",
"......OOO.....+####+..oooooo....",
"    ..     .. +####+  oo . ooooo",
"$$$$XXX$$$$XX++++++++XXX$$$$$$XX",
"  ...oo  .  ++######++ ..  X .. ",
".oooo......++########++..  $ ...",
" ....  O..o+##########+oo. $ ...",
"........O.++##########++...$ooo.",
".   ..oo.++############++O.X. ..",
" ...oo   +##############+..$... ",
".OOOOOO..++++++++++++++++. X .. ",
"         +##############+  X ...",
"X$X$$XX$$++++++++++++++++XX$$XX$",
" ..... X.+##############+.      ",
"ooooo. X ++++++++++++++++.ooo...",
".   OO $.+##############+OOO... ",
"..Ooo. $.++############++o..O...",
".. O.. X O+############+.o...  .",
".... o.$ .++##########++o.ooo...",
". ..ooo$ooo+##########+    .o...",
"..oo...X ..++########++...O.....",
"..     X..  ++++++++++........  ",
"XX$$$$$$$$$$X$XXX$$X$$XXX$$XXXXX",
"   ..ooooo.ooo  X ..........  . ",
"..ooooOOooo...  $..oOOOoooo.... ",
".oooo....ooo .. X oo%%%%oO.. .. ",
" .oOOO.  oooo.. X o.o.....ooo.. ",
".oo.. ..ooo.... X ..OOO..  ...  "
};
