/* XPM */
static char *a4a8c2282da04ed4dbc59288e8499a3bPnPybfkwWGZypMto[] = {
/* columns rows colors chars-per-pixel */
"32 32 91 1 ",
"  c #060504",
". c #130D06",
"X c #160F08",
"o c #1F1600",
"O c #1B1209",
"+ c #151414",
"@ c #191817",
"# c #1D1D1C",
"$ c #261B00",
"% c #22160A",
"& c #26190B",
"* c #2D1C0C",
"= c #311E0C",
"- c #2C1F10",
"; c #302404",
": c #35210E",
"> c #3A230F",
", c #2F2110",
"< c #342311",
"1 c #3C2612",
"2 c #3D2914",
"3 c #242323",
"4 c #282726",
"5 c #372D21",
"6 c #34322E",
"7 c #373635",
"8 c #3A3937",
"9 c #3B3A39",
"0 c #503D0C",
"q c #412710",
"w c #432B13",
"e c #4A2E14",
"r c #422E18",
"t c #4B3015",
"y c #483910",
"u c #46331C",
"i c #4C341A",
"p c #533316",
"a c #593617",
"s c #503F13",
"d c #53361A",
"f c #593718",
"g c #543A1D",
"h c #5B3B1B",
"j c #623E1C",
"k c #403E3C",
"l c #59440F",
"z c #65411D",
"x c #6C441E",
"c c #70471F",
"v c #72481F",
"b c #5F4221",
"n c #42403E",
"m c #644421",
"M c #694520",
"N c #664926",
"B c #6D4A24",
"V c #714720",
"C c #734A21",
"Z c #774D24",
"A c #794D22",
"S c #7A4F24",
"D c #7E5022",
"F c #795025",
"G c #7B542A",
"H c #7F562B",
"J c #7F582B",
"K c #7E592E",
"L c #434240",
"P c #454443",
"I c #4A4846",
"U c #545352",
"Y c #565555",
"T c #5D5C5C",
"R c #6A635B",
"E c #726B63",
"W c #716B64",
"Q c #805326",
"! c #80562B",
"~ c #825A2C",
"^ c #8A5B2A",
"/ c #885D2E",
"( c #875F32",
") c #8B6232",
"_ c #8D6333",
"` c #8B6335",
"' c #926632",
"] c #946733",
"[ c #898987",
"{ c #8B8988",
"} c #8C8B8A",
/* pixels */
";yyyyyyyyyyy;;;yyy;o;;yy;;ssssy;",
";yyllllyyyysssyyyyyo;ysyyyyyysss",
";yyysssssssss;yy;;;o;sssssyllyyy",
"yy;;yyy;;;syyyy;yy;$;yyllllsssyy",
"yyyyy;;sssy;;;yyyy;$;;yyyyyyyyyy",
"yyyyyylllyyyy%XO&%%oyyssssssyyyy",
";;;;yy;;;;.O*w<<5a2w:uss;y;sssss",
"$$$$ooo$$OOqaBfdAxgZzm1o$$$$$$oo",
";;yyyss;O12zxGtwRxdCC~hfy;;o;yy;",
"yssssyyO:bgxx~iuAxdCA/xCt;;$;yyy",
";yyyy;;&pZgVz)huzVdCC]xZiy;$;yyy",
"yyyyyyO2CAgxh'zdhVdAv)VSijy$sssy",
"y;;;yy%aHCgxfKhfAcdAD`cFijyoy;yy",
";yyyss7z^ZgxjKt2WCdHQ]zSi[y$yyy;",
"yllll%-ggddddNitggdhgBihiibo;yy;",
";;;;; T@@P@@@@U@@P@3+@U@@{+o;yyy",
"o$o$$OtZCxdxxHfdccdC!~xZjfN$$oo$",
";yyyyOYBAxgjC~rwECgCD_xFf}B;;;;;",
"sssss%tMvcghVJjdHxdCH(xZijNssyyy",
"y;;;lO2jxZdhjChizjtxv/jBigmlyyy;",
"yylssO<djMtfaMtwahwjhCajetgylyyy",
"yy;ly +#6LIIIIk79nIIIII84#@yy;;y",
"yyyy; .OOO.OOOO.OO.OOOOOOO.ssyyy",
"y;yys%>fha-eemq1pp-pazppw1,ysyyy",
"yyssyO3wew*>>i*%6q,qweqq:9*yyyyy",
"yy;;;.O*==&*&=%%=*%*=<=**%%yyy;;",
"oo$$$$$$$$$$o$ooo$$o$$ooo$$ooooo",
";;;yysssssysss;;o;yyyyyyyyyy;;y;",
"yyssssllsssyyy;;$yyslllssssyyyy;",
"yssssyyyysss;yy;o;ss0000slyy;yy;",
";ysllly;;ssssyy;o;sysyyyyysssyy;",
"yssyy;yysssyyyy;o;yylllyy;;yyy;;"
};
