/* XPM */
static char *ab3b449cdca24bb693b1ad177eff66051kPVOKc6gzPuyxWg[] = {
/* columns rows colors chars-per-pixel */
"32 32 183 2 ",
"   c #302404",
".  c #483910",
"X  c #1F1600",
"o  c #503F13",
"O  c #59440F",
"+  c #261B00",
"@  c black",
"#  c #040201",
"$  c #050201",
"%  c #080603",
"&  c #030201",
"*  c #070402",
"=  c #130C06",
"-  c #0D0804",
";  c #0F0A05",
":  c #050402",
">  c #080502",
",  c #1F150A",
"<  c #25180B",
"1  c #120B04",
"2  c #150E06",
"3  c #1A1209",
"4  c #070503",
"5  c #22170B",
"6  c #302010",
"7  c #3E2711",
"8  c #191007",
"9  c #20150A",
"0  c #19130C",
"q  c #1A140C",
"w  c #2F1F0F",
"e  c #442B13",
"r  c #160D06",
"t  c #231E19",
"y  c #060605",
"u  c #070603",
"i  c #060505",
"p  c #28231D",
"a  c #452D15",
"s  c #523317",
"d  c #1E1308",
"f  c #2F2922",
"g  c #181717",
"h  c #171008",
"j  c #080602",
"k  c #23180C",
"l  c #181818",
"z  c #41382F",
"x  c #543517",
"c  c #1C150C",
"v  c #2A2622",
"b  c #151513",
"n  c #2B1B0D",
"m  c #21160B",
"M  c #080503",
"N  c #1A1918",
"B  c #5C5249",
"V  c #130F0C",
"C  c #080807",
"Z  c #3A2510",
"A  c #332210",
"S  c #21170C",
"D  c #090602",
"F  c #090603",
"G  c #332110",
"H  c #3F2711",
"J  c #0E0D0D",
"K  c #372E25",
"L  c gray1",
"P  c #362310",
"I  c #3C2611",
"U  c #30200F",
"Y  c #21170B",
"T  c #0A0703",
"R  c #0A0704",
"E  c #3F2812",
"W  c #53361A",
"Q  c #0C0C0C",
"!  c #1B140C",
"~  c #3D2711",
"^  c #402811",
"/  c #2C1D0E",
"(  c #1C140A",
")  c #1C1309",
"_  c #412811",
"`  c #583718",
"'  c #544025",
"]  c #1C140B",
"[  c #3A2410",
"{  c #442E17",
"}  c #2A1B0C",
"|  c #10100F",
" . c #100F0F",
".. c #2A1A0C",
"X. c #462F17",
"o. c #533417",
"O. c #574024",
"+. c #311F0D",
"@. c #3D2913",
"#. c #222121",
"$. c #060402",
"%. c #060401",
"&. c #3F2914",
"*. c #4A2E14",
"=. c #634522",
"-. c #18120A",
";. c #27190B",
":. c #2F2E2E",
">. c #070502",
",. c #170F07",
"<. c #050301",
"1. c #050401",
"2. c #191108",
"3. c #30302F",
"4. c #503B21",
"5. c #151008",
"6. c #272625",
"7. c #100A04",
"8. c #23160A",
"9. c #231609",
"0. c #3B3A39",
"q. c #46331D",
"w. c #0C0B0B",
"e. c #120C05",
"r. c #34200D",
"t. c #1D1308",
"y. c #0F0904",
"u. c #0F0A04",
"i. c #35210D",
"p. c #181007",
"a. c #252524",
"s. c #0D0904",
"d. c #301D0C",
"f. c #27180A",
"g. c #150D06",
"h. c #150D05",
"j. c #281809",
"k. c #402710",
"l. c #1E1309",
"z. c #251609",
"x. c #1E1207",
"c. c #020202",
"v. c #070707",
"b. c gray6",
"n. c gray8",
"m. c #161616",
"M. c gray9",
"N. c #191919",
"B. c #1F1307",
"V. c #331F0C",
"C. c #4E3318",
"Z. c #181008",
"A. c #1A0F06",
"S. c #060606",
"D. c gray5",
"F. c gray11",
"G. c #222222",
"H. c #282828",
"J. c #2D2D2D",
"K. c gray18",
"L. c gray19",
"P. c gray20",
"I. c #323232",
"U. c gray21",
"Y. c gray22",
"T. c #3A3A3A",
"R. c #261609",
"E. c #3D2914",
"W. c #110B05",
"Q. c gray2",
"!. c #202020",
"~. c gray16",
"^. c #3F3F3F",
"/. c #434343",
"(. c #464646",
"). c #494949",
"_. c #4C4C4C",
"`. c gray30",
"'. c #4E4E4E",
"]. c gray31",
"[. c #2B1D0D",
"{. c #503D0C",
"}. c white",
/* pixels */
"  . . . . . . . . . . .       . . .   X     . .     o o o o .   ",
"  . . O O O O . . . . o o o . . . . . X   . o . . . . . . o o o ",
"  . . . o o o o o o o o o   . .       X   o o o o o . O O . . . ",
". .     . . .       o . . . .   . .   +   . . O O O O o o o . . ",
". . . . .     o o o .       . . . .   +     . . . . . . . . . . ",
". . . . . . O O O . . . . @ @ @ @ @ @ X . . o o o o o o . . . . ",
"        . .         # @ @ @ @ @ @ @ @ @ @ $ o o   .   o o o o o ",
"+ + + + X X X + + % & @ @ @ @ @ @ @ @ @ @ * = X + + + + + + X X ",
"    . . . o o   - ; : @ @ @ @ @ @ @ @ @ @ > , < .     X   . .   ",
". o o o o . . 1 2 3 4 @ @ @ @ @ @ @ @ @ @ 4 5 6 7     +   . . . ",
"  . . . .     8 9 0 @ @ @ @ @ @ @ @ @ @ @ @ q w e .   +   . . . ",
". . . . . . r < t y u @ @ @ @ @ @ @ @ @ @ % i p a s . + o o o . ",
".       . . d f g h j @ @ @ @ @ @ @ @ @ @ j k l z x . X .   . . ",
"  . . . o c v b n m M @ @ @ @ @ @ @ @ @ @ M m w N B . + . . .   ",
". O O O O V C Z A S D @ @ @ @ @ @ @ @ @ @ F S G H J K X   . .   ",
"          L P I U Y T @ @ @ @ @ @ @ @ @ @ R Y U E W Q X   . . . ",
"X + X + + ! ~ ^ / ( L @ @ @ @ @ @ @ @ @ @ L ) / _ ` ' + + X X + ",
"  . . . . ] [ { } | @ @ @ @ @ @ @ @ @ @ @ @  ...X.o.O.          ",
"o o o o o , +.@.#.& $.@ @ @ @ @ @ @ @ @ @ %.& #.&.*.=.o o . . . ",
".       O -.;.:.>.,.<.@ @ @ @ @ @ @ @ @ @ 1.2.>.3.I 4.O . . .   ",
". . O o o 5.6.7.8.2 <.@ @ @ @ @ @ @ @ @ @ <.2 9.7.0.q.. O . . . ",
". .   O . w.e.r.t.y.@ @ @ @ @ @ @ @ @ @ @ @ u.t.i.p.a.. .     . ",
". . . .   s.d.f.g.@ @ @ @ @ @ @ @ @ @ @ @ @ @ h.j.k.S o o . . . ",
".   . . o l.z.x.@ @ @ @ @ c.L v.b.n.m.M.l N.N.N.B.V.C.. o . . . ",
". . o o . Z.A.@ @ @ S.D.m.F.G.H.J.K.L.P.I.U.Y.Y.T.R.E.. . . . . ",
". .       W.@ Q.D.M.!.~.P.T.^./.(.)._.`.`.'.'.'.].].[.. . .     ",
"X X + + + + + + + + + + X + X X X + + X + + X X X + + X X X X X ",
"      . . o o o o o . o o o     X   . . . . . . . . . .     .   ",
". . o o o o O O o o o . . .     + . . o O O O o o o o . . . .   ",
". o o o o . . . . o o o   . .   X   o o {.{.{.{.o O . .   . .   ",
"  . o O O O .     o o o o . .   X   o . o . . . . . o o o . .   ",
". o o . .   . . o o o . . . .   X   . . O O O . .     . . .     "
};
