/* XPM */
static char *_d6b501c21c44c35d8839fd037d4ee17GDhmbBqTppnD9L7O[] = {
/* columns rows colors chars-per-pixel */
"32 32 16 1 ",
"  c None",
". c #745C1F",
"X c #A88E35",
"o c #C4B85C",
"O c #D5D196",
"+ c #7A6843",
"@ c #323234",
"# c #444444",
"$ c #CA9E73",
"% c #DDBD9C",
"& c #545456",
"* c #6D6D6E",
"= c #416E5F",
"- c #549E8E",
"; c #265358",
": c white",
/* pixels */
"                                ",
"                                ",
"                 .  ...         ",
"           ...  .X..oX          ",
"          .XoX..XX.oX.          ",
"           ..ooXoXoo......      ",
"         ..XoOooOooOooXooX.     ",
"        .XooOooOOoooOoooX.      ",
"       .oooOOoooooooOOoX.       ",
"      .X.XooOoooooooOoooX.      ",
"       .XooooOoOOOoOoooooX.     ",
"      .XooooooooOoooooooooo.    ",
"     .XX.oooooooooooooooXooo.   ",
"     .X.ooXooooooooooXooo...    ",
"     ..XoX.ooXooXoXooXXooX.     ",
"      .XX..XoXooXXXXoo.Xoo.     ",
"      .X..X.X.oX.XX.XoX..XX.    ",
"      .X..XX.X.X.XXX.XX....     ",
"       .+.XXXXX.XXXXX.X.+       ",
"         +.XXXXXXXXXXX.+        ",
"          .X.XXX.XXX.X.         ",
"         @#.$.X.%.X.$.#@        ",
"         @@##&.&&&.&##@@        ",
"        @&##&&&&&&&&&#@#@       ",
"       @*&#&&&*****&&#@#@       ",
"      @&*&&&&******&&#@#@       ",
"      #**&&#&***&***&&##@       ",
"     @&**&&#****&***&&##@       ",
"     @&*&&#&***&&*&&&&##@       ",
"      @@###&**&&&####&#@        ",
"        @@@@@@@@#=--;#@         ",
"                 =--;           "
};
