/* XPM */
static char *efaeb1519f7d46e3d0fd2b125915057eTMM2rXhNbzCFhGAC[] = {
/* columns rows colors chars-per-pixel */
"32 32 37 1 ",
"  c None",
". c #745C1F",
"X c #A88E35",
"o c #C4B85C",
"O c #D5D196",
"+ c #EEDAB3",
"@ c #464646",
"# c #FDF0C5",
"$ c gray85",
"% c #232323",
"& c #7A6843",
"* c #DDBD9C",
"= c gray95",
"- c gray55",
"; c white",
": c #2D401C",
"> c #CA9E73",
", c #417517",
"< c #323234",
"1 c #777575",
"2 c #545456",
"3 c #444444",
"4 c #B9B6B5",
"5 c #DBD8D7",
"6 c #6D6D6E",
"7 c #453FB4",
"8 c #516CED",
"9 c #352A80",
"0 c #265358",
"q c #75A2FF",
"w c #6A8779",
"e c #809D90",
"r c #4B6757",
"t c #92B0A3",
"y c #3E7F68",
"u c #416E5F",
"i c #549E8E",
/* pixels */
"                                ",
"                                ",
"                .   ...         ",
"           ... .X. .oX          ",
"          .Xoo..oX.oX.          ",
"         ....ooXoXoX...         ",
"        .XXooOooOooOoXX...      ",
"       .XoooOoooOOooOooooo.     ",
"      .XXXoOOoooooooOOooo.      ",
"       .XoooOoooooooOooX..      ",
"      .XoooooOooOOoOooooXX..    ",
"      .ooXXoooXOOoXoooXoooXX.   ",
"     .ooXXoooX.ooX.XoooX.XX.    ",
"     .oX.XooX..oo.+.XooXX..     ",
"     .X.XooX.++.X.++.XooXX.     ",
"      .XXoX.@@@#.#@@@.Xo.XX.    ",
"      .XXX.+$%$###$%$+.X..X.    ",
"      .X.&*+=%-###-%=+*&*&.     ",
"       .&&*+;::###::;+*&&       ",
"         &>+#,,###,,#+>&        ",
"          &*+#######+*&         ",
"         <<&>*+++++*>&<<        ",
"        <123&&&&&&&&&3341       ",
"       <15;2223333322355>&      ",
"       &*;;432666662374*>&      ",
"      <&+##182266622891&&<      ",
"      <&**+078q797q879<<<<<     ",
"      <2&&&0w77eee77e0<<<<<     ",
"      <222<0rwwrrwtte0<<<<<     ",
"       <22<<0yy000ttw0<  <      ",
"        <<   00  uiiy           ",
"                 uii0           "
};
