/* XPM */
static char *xpm_[] = {
/* columns rows colors chars-per-pixel */
"32 32 37 1 ",
"  c #232323",
". c #323234",
"X c #2D401C",
"o c #745C1F",
"O c #417517",
"+ c #265358",
"@ c #3E7F68",
"# c #444444",
"$ c #464646",
"% c #545456",
"& c #4B6757",
"* c #416E5F",
"= c #7A6843",
"- c #6D6D6E",
"; c #777575",
": c #6A8779",
"> c #A88E35",
", c #C4B85C",
"< c #CA9E73",
"1 c #352A80",
"2 c #453FB4",
"3 c #516CED",
"4 c #549E8E",
"5 c #75A2FF",
"6 c gray55",
"7 c #809D90",
"8 c #92B0A3",
"9 c #B9B6B5",
"0 c #DDBD9C",
"q c #D5D196",
"w c #EEDAB3",
"e c #DBD8D7",
"r c gray85",
"t c #FDF0C5",
"y c gray95",
"u c white",
"i c None",
/* pixels */
"iiiiiiiiiiiiiiiiiiiiiiiiiiiiiiii",
"iiiiiiiiiiiiiiiioiiiiiiiiiiiiiii",
"iiiiiiiiiiioooio>oooooiiiiiiiiii",
"iiiiiiiiiio>,,o>,o>,oiiiiiiiiiii",
"iiiiiiiiiiio>,,o,>,oooooooiiiiii",
"iiiiiiiiooooo>,,,,,>>,,>oiiiiiii",
"iiiiiiio>>,,,q,,,,,q,,>ooiiiiiii",
"iiiiiio>,,,qq,,,,,,,qq,>>oiiiiii",
"iiiiiiioo>,,qq,,,,,qq,,,,>oiiiii",
"iiiiiiio>,,,,q,qqq,q,,,>,,>oiiii",
"iiiiiio>,,>,,,,,,,,,>,,,o>>>oiii",
"iiiiio>,,o>,,,,>,,,>o>,,>oooiiii",
"iiiio>>>oo,,>o>,,,>owo>,,oiiiiii",
"iiiiiooo>o,>o>>,,>owwwo>,oiiiiii",
"iiiiiio>>o>o>=o,>o$$$wwo>oiiiiii",
"iiiiiio>>oo>=to>otr rtw=oiiiiiii",
"iiiiiio>oo>>=t<otty 6tw=iiiiiiii",
"iiiiiiioio>>=w<tttuXXt0=iiiiiiii",
"iiiiiiiiio>o>=0wtttOOt<=iiiiiiii",
"iiiiiiiiiioo>>00wtttt0=iiiiiiiii",
"iiiiiiiiiii.o><00ww0<=iiiiiiiiii",
"iiiiiiiiii.$#o=======iiiiiiiiiii",
"iiiiiiiii.%%%%#%%%$#$.iiiiiiiiii",
"iiiiiiii.#-#9u%%---%#.iiiiiiiiii",
"iiiiiiii.%-;euu;%%%$$.iiiiiiiiii",
"iiiiiii.#%-;eue;55321iiiiiiiiiii",
"iiiiiii.#%-=wtt=332&1iiiiiiiiiii",
"iiiiiii.#%%=0tt=487+iiiiiiiiiiii",
"iiiiiii.#%%.===768:+iiiiiiiiiiii",
"iiiiiiii.$%..+*@4:+iiiiiiiiiiiii",
"iiiiiiiii..ii+*@44+iiiiiiiiiiiii",
"iiiiiiiiiiiiii++++iiiiiiiiiiiiii"
};
