/* XPM */
static char *_f2e3ea996aa4a1b9acaf38c1589a5e0ddWUYfYAmbZSL7DN[] = {
/* columns rows colors chars-per-pixel */
"32 32 36 1 ",
"  c None",
". c #745C1F",
"X c #A88E35",
"o c #C4B85C",
"O c #D5D196",
"+ c #EEDAB3",
"@ c #464646",
"# c #FDF0C5",
"$ c gray85",
"% c #232323",
"& c #DDBD9C",
"* c #7A6843",
"= c gray95",
"- c gray55",
"; c white",
": c #2D401C",
"> c #CA9E73",
", c #417517",
"< c #323234",
"1 c #777575",
"2 c #444444",
"3 c #DBD8D7",
"4 c #545456",
"5 c #453FB4",
"6 c #6D6D6E",
"7 c #B9B6B5",
"8 c #352A80",
"9 c #516CED",
"0 c #75A2FF",
"q c #265358",
"w c #6A8779",
"e c #809D90",
"r c #92B0A3",
"t c #4B6757",
"y c #3E7F68",
"u c #549E8E",
/* pixels */
"                                ",
"               .                ",
"          .... ..  ...          ",
"           .Xo..X..oXX.         ",
"         ....XoXoXoX..          ",
"       ..XXooOooOooOoX...       ",
"      .XXoooOoooOOooOooXX.      ",
"       ..XoOOoooooooOOoooX.     ",
"       .XoooOoooooooOooX..      ",
"      .XoooooOooOOoOooooX..     ",
"      .ooXXoooXOOoXoooXooXX.    ",
"     .ooXXoooX.ooX.XoooX.XXX.   ",
"    .....XooX..oX.+.XooXX...    ",
"      ..XooX.+.X.+++.XooXX.     ",
"      .XXoX.@@@.##@@@.Xo.X.     ",
"      .X.X.+$%$###$%$+.X.X.     ",
"      ..&*&+=%-###-%=+&*&..     ",
"      . **&+;::###::;+&** .     ",
"         *>+#,,###,,#+>*        ",
"          *&+#######+&*         ",
"         <<*>&+++++&>*<<        ",
"         122*********221        ",
"        13;24422222442;31       ",
"       *>;3524666664253;>*      ",
"       *##7894466644987##*      ",
"       *#+*85905850958*+#*      ",
"       <**<qw55eee55wq<**<      ",
"       <<<<qwrewwwerwq<<<<      ",
"       <<<<qtretttertq<<<<      ",
"        <   qyyqqqyyq   <       ",
"            quuq quuq           ",
"             qq   qq            "
};
