/* XPM */
static char *_c7cb6d526b3435eaa8ad42e0c22afbc3nqY4WCiMv5p2ueq[] = {
/* columns rows colors chars-per-pixel */
"32 32 15 1 ",
"  c None",
". c #745C1F",
"X c #A88E35",
"o c #C4B85C",
"O c #D5D196",
"+ c #7A6843",
"@ c #323234",
"# c #444444",
"$ c #CA9E73",
"% c #DDBD9C",
"& c #545456",
"* c #6D6D6E",
"= c #265358",
"- c #549E8E",
"; c white",
/* pixels */
"                                ",
"                 .              ",
"           ...  .. ....         ",
"          .XXo..X..oX.          ",
"           ..XoXoXoX....        ",
"        ...XoOooOooOooXX..      ",
"       .XXooOooOOoooOoooXX.     ",
"      .XoooOOoooooooOOoX..      ",
"       ..XooOoooooooOoooX.      ",
"      ..XooooOoOOOoOoooooX.     ",
"     .XXoXooooooOooooooXoo.     ",
"    .XX.XoooooooooooooooXoo.    ",
"     ...ooXooXoooooooXoo.....   ",
"      .XoX.ooXooXoXooX.oo..     ",
"      .XX..oXXooXXXooX.XoX.     ",
"      .X.X.X.Xo.XX.XoX..XX.     ",
"      ...XX.X.X.XXX.X.XX...     ",
"      . +.XXXX.XXXXX.XX.+ .     ",
"         .XXXXXXXXXXXXX.        ",
"          .X.XXX.XXX.X.         ",
"         @#.$.X.%.X.$.#@        ",
"        @#@##&.&&&.&##@#@       ",
"        @#@@&&*****&&@@#@       ",
"       @#@##&&&&&&&&&##@#@      ",
"       @#@#&&&*****&&&#@#@      ",
"       @###&&*******&&###@      ",
"      @####&&*******&&####@     ",
"      @###&&*********&&###@     ",
"       @@#&&**&&&&&**&&#@@      ",
"         @@@@@@@@@@@@@@@        ",
"            =--= =--=           ",
"             ==   ==            "
};
