/* XPM */
static char *xpm_[] = {
/* columns rows colors chars-per-pixel */
"32 32 7 1 ",
"  c #1F1600",
". c #261B00",
"X c #302404",
"o c #503D0C",
"O c #483910",
"+ c #503F13",
"@ c #59440F",
/* pixels */
"XOOOOOOOOOOOXXXOOOX XXOOXX++++OX",
"XOO@@@@OOOO+++OOOOO XO+OOOOOO+++",
"XOOO+++++++++XOOXXX X+++++O@@OOO",
"OOXXOOOXXX+OOOOXOOX.XOO@@@@+++OO",
"OOOOOXX+++OXXXOOOOX.XXOOOOOOOOOO",
"OOOOOO@@@OOOOOOXOOX OO++++++OOOO",
"XXXXOOXXXXXOOXXXXXO XX++XOX+++++",
"....   ....     ..      ......  ",
"XXOOO++XXOXXXXXOOOOXOXXOOXX XOOX",
"O++++OOOOOOOOOOO+++++++OOXX.XOOO",
"XOOOOXX@OO++++O+O@@OOOO++OX.XOOO",
"OOOOOOOO@OOOOO@@OOO@XXXOOOO.+++O",
"OXXXOO++OO++OOOOOOOX@@@@@@O OXOO",
"XOOO++XXXXXXO@@@+++OOOOOXOO.OOOX",
"O@@@@@@OOOO@OO@OOOOOOOXOOOX XOOX",
"XXXXXXXXX+++OO++OOOXXXXOXXX XOOO",
" . ..  ......... .  ...    ..  .",
"XOOOOOX OOOOOOXXXXXXXO@@@OXXXXXX",
"+++++OX XXO++++++++++OOOOO+++OOO",
"OXXX@@X.O++OXXOOOOOO@OO+O@@@OOOX",
"OO@++OX.OOOO@O++@@@@++++++OO@OOO",
"OOX@OOX X@@@@OOOO+++OOOOO+OOOXXO",
"OOOOX+O.XOXXXO@OO+O+OO+++O+++OOO",
"OXOO+++.+++OOOXXO@@@@@@XXXXO+OOO",
"OO++OOO XOO++++++OOOOOOOOO@OOOOO",
"OOXXXXX OOXXXXXXOOOOOOOOOOOOOOXX",
"  .......... .   .. ..   ..     ",
"XXXOO+++++O+++XX XOOOOOOOOOOXXOX",
"OO++++@@+++OOOXX.OO+@@@++++OOOOX",
"O++++OOOO+++XOOX X++oooo+@OOXOOX",
"XO+@@@OXX++++OOX X+O+OOOOO+++OOX",
"O++OOXOO+++OOOOX XOO@@@OOXXOOOXX"
};
