/* XPM */
static char *xpm_[] = {
/* columns rows colors chars-per-pixel */
"32 32 5 1 ",
"  c #1F1D24",
". c #302E34",
"X c #36343C",
"o c #57555E",
"O c #77757E",
/* pixels */
"                                ",
"X.X..XX XXXX..X. X.XX.XX.XXX X.X",
"oOOoOXo OXooXXOo ooOoXoXo.Oo .oO",
"oOoOooo OoOoOOoO OOoooooOoOo OOo",
"                                ",
"XXXXX.XX... XoXX.X.XoXX X.X..X.X",
"oXooOoXo.XX XoOOXXoooXo XOoo.oXo",
"ooOOOOooOOo ooooooOoOoo ooOooOOo",
"                                ",
"X X.X.XX XXXX.X.XX X..XX.X .X..X",
"o oXoOoO oOoXXooXo XooXXoO XXooo",
"o oooOOo OOoooOooo oOooOoo .oooo",
"                                ",
"oX..X oXX.X.XX XXX.XOX X..XXX.. ",
"XXO.o XoooX.oO oOOo.oo ooX.Oooo ",
"oOooo ooOoooOo ooooooo oOoOOOoo ",
"                                ",
"XX. XXoX...X ..X...X XX....X X..",
"o.o oX..X.oo o..oOoO XoOoo.o o.O",
"OOo XooOoOOO oOOOoOo OOOoOoo Ooo",
"                                ",
"XX.X.. XXXo...X XoX....oX XoXXo.",
"ooOX.o XoOXXooO XoXoooOoo oXO.XX",
"OooOOo ooOooOOo oOoOOOooo oOooOo",
"                                ",
"XoXX X.X.XXXX X.XoXoXo o.... X..",
"oXXo oOXXoooO XoOooOXo XXoo. ooO",
"OOoO oOOoOoOO OOOooOOo ooOOO oOo",
"                                ",
".XX XX.X X...XX XX.....X X..Xo .",
"oOO oOOo ooOoOo ooOOoOoo oOoo. O",
"                                "
};
