/* XPM */
static char *xpm_[] = {
/* columns rows colors chars-per-pixel */
"32 32 41 1 ",
"  c #302404",
". c #483910",
"X c #1F1600",
"o c #503F13",
"O c #59440F",
"+ c #745C1F",
"@ c #A88E35",
"# c #C4B85C",
"$ c #261B00",
"% c #D5D196",
"& c #EEDAB3",
"* c #464646",
"= c #7A6843",
"- c #FDF0C5",
"; c gray85",
": c #232323",
"> c gray55",
", c gray95",
"< c #DDBD9C",
"1 c #2D401C",
"2 c white",
"3 c #CA9E73",
"4 c #417517",
"5 c #323234",
"6 c #6D6D6E",
"7 c #545456",
"8 c #444444",
"9 c #DBD8D7",
"0 c #777575",
"q c #352A80",
"w c #453FB4",
"e c #516CED",
"r c #75A2FF",
"t c #4B6757",
"y c #265358",
"u c #809D90",
"i c #92B0A3",
"p c #6A8779",
"a c #549E8E",
"s c #3E7F68",
"d c #416E5F",
/* pixels */
" ...........   ... X  ..  oooo. ",
" ..OOOO....ooo.....X .o......ooo",
" ...ooooooooo ..++ X +oooo.OO...",
"..  ...   o.+++++@++@#+OOOOooo..",
".....  ooo.+@#@+#@+##@+.........",
"......OOO++++@#@#+##@+oooooo....",
"    .. ++@#########@++++++ ooooo",
"$$$$XX++++@##%#####%#####@+$$$XX",
"  ...oo+@@#%%#######%%##@+ X .. ",
".oooo.+@####%%#####%%##@++ $ ...",
" ....+@##@###%#%%%#%####@@+$ ...",
"....+@@@+###@#########@##@@+ooo.",
".   .+++@##@+@###@#####+##@@+ ..",
" ...oo +@#@+&+@###@+@##@++++... ",
".OOOOOO+@@+&&&+@##@@+@##+@+X .. ",
"       +@+&&***+@#@+@+++@@@+ ...",
"X$X$$XX$+=&-;:;-+@@+=@@@+@@+$XX$",
" ..... X.=&->:,--++-=@@@++@+    ",
"ooooo. X =<-112---3&=@@@+.+oo...",
".   OO $.=3-44---&<=@@+@+OOO... ",
"..Ooo. $..=<----&<<@@+o+oo..O...",
".. O.. X OO=3<&&<<3@+55..o...  .",
".... o.$ .  =======+6785o.ooo...",
". ..ooo$ooo58887778677675  .o...",
"..oo...X ..587666772905685O.....",
"..     X.. 5887770922906785...  ",
"XX$$$$$$$$$$qwerre092-<=675XXXXX",
"   ..ooooo.oqtweewy0--<=6785  . ",
"..ooooOOoooyuiiupyt=<<=56785... ",
".oooo....oyaaspptydd==55675. .. ",
" .oOOO.  oyaaadyy yyy55575ooo.. ",
".oo.. ..oooyyyy X ..OOO.5  ...  "
};
