/* XPM */
static char *xpm_[] = {
/* columns rows colors chars-per-pixel */
"32 32 40 1 ",
"  c #302404",
". c #483910",
"X c #1F1600",
"o c #503F13",
"O c #59440F",
"+ c #745C1F",
"@ c #A88E35",
"# c #C4B85C",
"$ c #261B00",
"% c #D5D196",
"& c #EEDAB3",
"* c #464646",
"= c #7A6843",
"- c #FDF0C5",
"; c gray85",
": c #232323",
"> c gray55",
", c gray95",
"< c #CA9E73",
"1 c #DDBD9C",
"2 c #2D401C",
"3 c white",
"4 c #417517",
"5 c #323234",
"6 c #444444",
"7 c #545456",
"8 c #6D6D6E",
"9 c #B9B6B5",
"0 c #777575",
"q c #DBD8D7",
"w c #352A80",
"e c #453FB4",
"r c #516CED",
"t c #265358",
"y c #4B6757",
"u c #416E5F",
"i c #6A8779",
"p c #809D90",
"a c #549E8E",
"s c #3E7F68",
/* pixels */
" ...........   ... X  ..  oooo. ",
" ..OOOO....ooo.....X .o......ooo",
" ...ooooooo+++.++  X ooooo.OO...",
"..  ...   o.@#+@#+ $++.OOOOooo..",
".....  ++++ +##+#@++##+.........",
"......OO@#@+++#@#+@##@@+oooo....",
"    ..  +@##@@#####@+++++. ooooo",
"$$$$XXX+++@##%#####%###@@+$$$$XX",
"  ...++@###%%#######%%###@+X .. ",
".ooo+@######%%#####%%##@++ $ ...",
" ....+@@@@###%#%%%#%####@+ $ ...",
"......+++###@#########@###+$ooo.",
".   ..o+@##@+@###@####@@##@+. ..",
" ...oo +##@+&+###@+@###+@##@+.. ",
".OOOOO+@#@+&&+@##@@+@##+++++ .. ",
"      +@@+&&**+@#@+=+@#+@@+X ...",
"X$X$$XX+$=&-;:;+#++-=++@@@+$$XX$",
" ..... X.=&->:,-++<-=@@+@@+     ",
"ooooo. X =1-223---<&=@@++@+oo...",
".   OO $.=<-44---&1=@+@+.O+O... ",
"..Ooo. $..=1----&11@@++ooo..O...",
".. O.. X OO=<1&&11<@+5...o...  .",
".... o.$ .  =======+665oo.ooo...",
". ..ooo$ooo5666778887865   .o...",
"..oo...X ..56788883968765.O.....",
"..     X.. 56677033q08765.....  ",
"XX$$$$$$$$$$wer=q339087665$XXXXX",
"   ..ooooo.oty=&--90t88765..  . ",
"..ooooOOoootui=1&1=py78765o.... ",
".oooo....ootuuu===yaas855O.. .. ",
" .oOOO.  ooottt Xtaaas5...ooo.. ",
".oo.. ..ooo.... X ttttO..  ...  "
};
