/* XPM */
static char *b4d473c120d8464c904f95a31e2d7fccQBTDry7cuRLqga7x[] = {
/* columns rows colors chars-per-pixel */
"32 32 41 1 ",
"  c #302404",
". c #483910",
"X c #1F1600",
"o c #503F13",
"O c #59440F",
"+ c #745C1F",
"@ c #C4B85C",
"# c #A88E35",
"$ c #261B00",
"% c #D5D196",
"& c #EEDAB3",
"* c #7A6843",
"= c #464646",
"- c #FDF0C5",
"; c gray85",
": c #232323",
"> c #CA9E73",
", c gray95",
"< c gray55",
"1 c white",
"2 c #2D401C",
"3 c #DDBD9C",
"4 c #417517",
"5 c #323234",
"6 c #444444",
"7 c #6D6D6E",
"8 c #545456",
"9 c #B9B6B5",
"0 c #777575",
"q c #DBD8D7",
"w c #516CED",
"e c #453FB4",
"r c #352A80",
"t c #265358",
"y c #4B6757",
"u c #809D90",
"i c #6A8779",
"p c #416E5F",
"a c #3E7F68",
"s c #549E8E",
"d c #503D0C",
/* pixels */
" ...........   ... X  ..  oooo. ",
" ..OOOO....ooo.....X .o......ooo",
" ...ooooooooo ..++ +++oooo.OO...",
"..  ...   o++..+@#+@#..OOOOooo..",
".....  ooo+@@++#@+@@+ ++++......",
"......OOO+##@@#+@#@+++#@#ooo....",
"    ..  +++++#@@@@@##@@#+. ooooo",
"$$$$XXX+##@@@%@@@@@%@@#+++$$$$XX",
"  ...o+#@@@%%@@@@@@@%%@@@#++ .. ",
".oooo..++#@@%%@@@@@%%@@@@@@#+...",
" ....  +#@@@@%@%%%@%@@@####+ ...",
"......+@@@#@@@@@@@@@#@@@+++$ooo.",
".   .+#@@##@@@@#@@@#+#@@#+.X. ..",
" ...+#@@#+@@@#+#@@@+&+#@@+.$... ",
".OOOO+++++@@#+##@@#+&&+#@#+X .. ",
"      +##+@#+*+#@#+==&&+##+X ...",
"X$X$$X+###++*-++@+;:;-&*X+X$$XX$",
" .....+##+##*->++-,:<-&*O.      ",
"ooooo.+#++##*&>---122-3*..ooo...",
".   OO+$.+#+#*3&---44->*.OOO... ",
"..Ooo. $..++##33&----3*ooo..O...",
".. O.. X OO5+#>33&&3>*...o...  .",
".... o.$ .566+*******.ooo.ooo...",
". ..ooo$o5678777886665O    .o...",
"..oo...X56876917777865....O.....",
"..     X56870q11088665........  ",
"XX$$$$$566870911q*wer$XXX$$XXXXX",
"   ..oo56877t09--&*yt.......  . ",
"..ooooO56878yu*3&3*iptOoooo.... ",
".oooo...557assy***ppptddoO.. .. ",
" .oOOO.  o5assstX ttt.....ooo.. ",
".oo.. ..oootttt X ..OOO..  ...  "
};
