/* XPM */
static char *xpm_[] = {
/* columns rows colors chars-per-pixel */
"32 32 43 1 ",
"  c #302404",
". c #483910",
"X c #1F1600",
"o c #503F13",
"O c #59440F",
"+ c #745C1F",
"@ c #A88E35",
"# c #C4B85C",
"$ c #D5D196",
"% c #261B00",
"& c #EEDAB3",
"* c #464646",
"= c #FDF0C5",
"- c gray85",
"; c #232323",
": c #7A6843",
"> c #DDBD9C",
", c gray95",
"< c gray55",
"1 c white",
"2 c #2D401C",
"3 c #CA9E73",
"4 c #417517",
"5 c #323234",
"6 c #777575",
"7 c #545456",
"8 c #444444",
"9 c #B9B6B5",
"0 c #DBD8D7",
"q c #6D6D6E",
"w c #453FB4",
"e c #516CED",
"r c #352A80",
"t c #265358",
"y c #75A2FF",
"u c #6A8779",
"i c #809D90",
"p c #4B6757",
"a c #92B0A3",
"s c #3E7F68",
"d c #503D0C",
"f c #416E5F",
"g c #549E8E",
/* pixels */
" ...........   ... X  ..  oooo. ",
" ..OOOO....ooo.....X .o......ooo",
" ...ooooooooo ..+  X+++ooo.OO...",
"..  ...   o+++.+@+ +#@.OOOOooo..",
".....  ooo+@##++#@+#@+..........",
"......OOO++++##@#@#@+++ooooo....",
"    ..  +@@##$##$##$#@@+++ ooooo",
"%%%%XXX+@###$###$$##$#####+%%%XX",
"  ...o+@@@#$$#######$$###+ X .. ",
".oooo..+@###$#######$##@++ % ...",
" .... +@#####$##$$#$####@@++ ...",
"......+##@@###@$$#@###@###@@+oo.",
".   .+##@@###@+##@+@###@+@@+. ..",
" ...o+#@+@##@++##+&+@##@@++%... ",
".OOOO+@+@##@+&&+@+&&+@##@@+X .. ",
"      +@@#@+***=+=***+@#+@@+ ...",
"X%X%%X+@@@+&-;-===-;-&+@++@+%XX%",
" .....+@+:>&,;<===<;,&>:>:+     ",
"ooooo. +::>&122===221&>::.ooo...",
".   OO %.:3&=44===44=&3:.OOO... ",
"..Ooo. %..:>&=======&>:ooo..O...",
".. O.. X 55:3>&&&&&>3:55.o...  .",
".... o.%5678:::::::::8896.ooo...",
". ..ooo560177788888778003: .o...",
"..oo...:>11987qqqqq78w9>3:O.....",
"..    5:&==6e77qqq77er6::5....  ",
"XX%%%%5:>>&tweywrwyewr55555XXXXX",
"   ..o57:::tuwwiiiwwit55555.  . ",
"..oooo57775tpuuppuaait55555.... ",
".oooo..57755tsstttaaut5do5.. .. ",
" .oOOO. 55ooott Xfggs.....ooo.. ",
".oo.. ..ooo.... XfggtOO..  ...  "
};
