/* XPM */
static char *xpm_[] = {
/* columns rows colors chars-per-pixel */
"32 32 43 1 ",
"  c #302404",
". c #483910",
"X c #1F1600",
"o c #503F13",
"O c #59440F",
"+ c #745C1F",
"@ c #A88E35",
"# c #C4B85C",
"$ c #D5D196",
"% c #261B00",
"& c #EEDAB3",
"* c #7A6843",
"= c #464646",
"- c #FDF0C5",
"; c gray85",
": c #232323",
"> c #CA9E73",
", c gray95",
"< c gray55",
"1 c white",
"2 c #2D401C",
"3 c #DDBD9C",
"4 c #417517",
"5 c #323234",
"6 c #444444",
"7 c #545456",
"8 c #6D6D6E",
"9 c #B9B6B5",
"0 c #777575",
"q c #DBD8D7",
"w c #75A2FF",
"e c #516CED",
"r c #453FB4",
"t c #352A80",
"y c #4B6757",
"u c #809D90",
"i c #92B0A3",
"p c #265358",
"a c #6A8779",
"s c #416E5F",
"d c #3E7F68",
"f c #549E8E",
"g c #503D0C",
/* pixels */
" ...........   ... X  ..  oooo. ",
" ..OOOO....ooo..+..X .o......ooo",
" ...ooooooo+++.+@+++++oooo.OO...",
"..  ...   +@##+@#+@#+..OOOOooo..",
".....  ooo.+@##+#@#+++++++......",
"......OO+++++@#####@@##@+ooo....",
"    .. +@@###$#####$##@++. ooooo",
"%%%%XX+@###$$#######$$#@@+%%%%XX",
"  ...oo++@##$$#####$$####@+X .. ",
".oooo..+@####$#$$$#$###@##@+ ...",
" .... +@##@#########@###+@@@+...",
".....+@##+@####@###@+@##@+++ooo.",
".   +@@@++##@+@###@+&+@##+.X. ..",
" ...o+++@+#@+@@##@+&&&+@#+.%... ",
".OOOOO+@@+@+@*+#@+===&&+@+ X .. ",
"      +@@++@*-+@+-;:;-&*+  X ...",
"X%X%%X+@++@@*->+--,:<-&*XXX%%XX%",
" ..... +.+@@*&>---122-3*O.      ",
"ooooo. X +@+@*3&---44->*..ooo...",
".   OO %.o++@@33&----3*o.OOO... ",
"..Ooo. %...5+@>33&&3>*oooo..O...",
".. O.. X O566+*******....o...  .",
".... o.% 5777767776665ooo.ooo...",
". ..ooo%56869177888765O    .o...",
"..oo...X5780q110777665....O.....",
"..     56780q1q0wwert.........  ",
"XX%%%%%5678*&--*eeryt%XXX%%XXXXX",
"   ..oo5677*3--*uiup........  . ",
"..ooooO56775***uuiapOOOoooo.... ",
".oooo...56755psdfdpoggggoO.. .. ",
" .oOOO.  55oopsdffp.o.....ooo.. ",
".oo.. ..ooo...pppp..OOO..  ...  "
};
