/* XPM */
static char *_17bea0b744c4df687c54e52491ba471cEqvrwiqMPVV0uq0[] = {
/* columns rows colors chars-per-pixel */
"32 32 21 1 ",
"  c #302404",
". c #483910",
"X c #1F1600",
"o c #503F13",
"O c #59440F",
"+ c #745C1F",
"@ c #A88E35",
"# c #C4B85C",
"$ c #D5D196",
"% c #261B00",
"& c #7A6843",
"* c #323234",
"= c #444444",
"- c #CA9E73",
"; c #DDBD9C",
": c #545456",
"> c #6D6D6E",
", c #265358",
"< c #549E8E",
"1 c #416E5F",
"2 c white",
/* pixels */
" ...........   ... X  ..  oooo. ",
" ..OOOO....ooo.....X .o......ooo",
" ...oooooo+++ ..+  X ooooo.OO...",
"..  ...   o@#+.+@+ +++.OOOOooo..",
".....  ooo.+@#+@#++##@+.........",
"......OOO.+++@#@#@##++++oooo....",
"    .. +++@@#$##$##$##@@+. ooooo",
"%%%%XX+#####$##$$###$###@+%%%%XX",
"  ...oo+###$$#######$$#@@@+X .. ",
".oooo..++@##$#######$###@+ % ...",
" ....++@@####$#$$$#$#####@+% ...",
"....+@@#########$#####@@##+%ooo.",
".   .+@@+#@############@@##+. ..",
" ...oo++@@+##@#######@##+@#+... ",
".OOOOO+@@+@#@###@#@##@+#@+@+ .. ",
"     +@@++@#+##@@@@##@+@@@+X ...",
"X%X%%+@+++@++#@+@@+#@+++@@+%%XX%",
" .....+&+@+@+@+@@@+@+@@++@+     ",
"ooooo. X&+@@@+@@@@@+@@@+&+ooo...",
".   OO %.+@@@@@@@@@@@@+&.OOO... ",
"..Ooo. %..+@+@@@+@@@+@+ooo..O...",
".. O.. X *=+-+@+;+@+-+=*.o...  .",
".... o.% **==:+:::+:==**o.ooo...",
". ..ooo%*=*=:::::::::==:*  .o...",
"..oo...X*=*=::>>>>>:::=:>*O.....",
"..     X*=*=::>>>>>>::::>:*...  ",
"XX%%%%%%*==::>>>:>>>:=::>>=XXXXX",
"   ..ooo*==::>>>:>>>>=::>>:*  . ",
"..ooooOO*==::::>::>>>:=::>:*... ",
".oooo....*=:====:::>>:===**. .. ",
" .oOOO.  o*=,<<1=********.ooo.. ",
".oo.. ..ooo.,<<1X ..OOO..  ...  "
};
