/* XPM */
static char *xpm_[] = {
/* columns rows colors chars-per-pixel */
"32 32 42 1 ",
"  c #302404",
". c #483910",
"X c #1F1600",
"o c #503F13",
"O c #59440F",
"+ c #745C1F",
"@ c #A88E35",
"# c #C4B85C",
"$ c #D5D196",
"% c #261B00",
"& c #EEDAB3",
"* c #464646",
"= c #FDF0C5",
"- c gray85",
"; c #232323",
": c #DDBD9C",
"> c #7A6843",
", c gray95",
"< c gray55",
"1 c white",
"2 c #2D401C",
"3 c #CA9E73",
"4 c #417517",
"5 c #323234",
"6 c #777575",
"7 c #444444",
"8 c #DBD8D7",
"9 c #545456",
"0 c #453FB4",
"q c #6D6D6E",
"w c #B9B6B5",
"e c #352A80",
"r c #516CED",
"t c #75A2FF",
"y c #265358",
"u c #6A8779",
"i c #809D90",
"p c #92B0A3",
"a c #4B6757",
"s c #3E7F68",
"d c #503D0C",
"f c #549E8E",
/* pixels */
" ...........   ... X  ..  oooo. ",
" ..OOOO....ooo.+...X .o......ooo",
" ...oooooo++++.++  +++oooo.OO...",
"..  ...   o+@#++@++#@@+OOOOooo..",
".....  oo++++@#@#@#@++..........",
"......O++@@##$##$##$#@+++ooo....",
"    ..+@@###$###$$##$##@@+ ooooo",
"%%%%XXX++@#$$#######$$###@+%%%XX",
"  ...oo+@###$#######$##@++ X .. ",
".oooo.+@#####$##$$#$####@++% ...",
" .... +##@@###@$$#@###@##@@+ ...",
".....+##@@###@+##@+@###@+@@@+oo.",
".   +++++@##@++#@+&+@##@@+++. ..",
" ...oo++@##@+&+@+&&&+@##@@+%... ",
".OOOOO+@@#@+***+==***+@#+@+X .. ",
"      +@+@+&-;-===-;-&+@+@+X ...",
"X%X%%X++:>:&,;<===<;,&:>:++%%XX%",
" .....+X>>:&122===221&:>>.+     ",
"ooooo. X >3&=44===44=&3>..ooo...",
".   OO %.o>:&=======&:>o.OOO... ",
"..Ooo. %.55>3:&&&&&:3>55oo..O...",
".. O.. X 677>>>>>>>>>776.o...  .",
".... o.%68179977777997186.ooo...",
". ..ooo>318079qqqqq970813> .o...",
"..oo...>==wer99qqq99rew==>O.....",
"..     >=&>e0rt0e0tr0e>&=>....  ",
"XX%%%%%5>>5yu00iii00uy5>>5%XXXXX",
"   ..oo5555yupiuuuipuy5555..  . ",
"..ooooO5555yapiaaaipay5555o.... ",
".oooo...5oooyssyyyssyddd5O.. .. ",
" .oOOO.  oooyffyXyffy.....ooo.. ",
".oo.. ..ooo..yy X yyOOO..  ...  "
};
