/* XPM */
static char *eae89290aebb40f8cf76a128b7cb0496kFflIGRlP9RPhfpd[] = {
/* columns rows colors chars-per-pixel */
"32 32 20 1 ",
"  c #302404",
". c #483910",
"X c #1F1600",
"o c #503F13",
"O c #59440F",
"+ c #745C1F",
"@ c #A88E35",
"# c #C4B85C",
"$ c #D5D196",
"% c #261B00",
"& c #7A6843",
"* c #323234",
"= c #444444",
"- c #CA9E73",
"; c #DDBD9C",
": c #545456",
"> c #6D6D6E",
", c #265358",
"< c #549E8E",
"1 c white",
/* pixels */
" ...........   ... X  ..  oooo. ",
" ..OOOO....ooo...+.X .o......ooo",
" ...ooooooo+++..++ ++++ooo.OO...",
"..  ...   +@@#++@++#@+.OOOOooo..",
".....  ooo.++@#@#@#@++++........",
"......OO+++@#$##$##$##@@++oo....",
"    .. +@@##$##$$###$###@@+ooooo",
"%%%%XX+@###$$#######$$#@++%%%%XX",
"  ...oo++@##$#######$###@+ X .. ",
".oooo.++@####$#$$$#$#####@+% ...",
" ....+@@#@######$######@##+% ...",
"....+@@+@###############@##+ooo.",
".   .+++##@##@#######@##+++++ ..",
" ...oo+@#@+##@##@#@##@+##++%... ",
".OOOOO+@@++#@@##@@@##@+@#@+X .. ",
"      +@+@+@+@#+@@+@#@++@@+X ...",
"X%X%%X+++@@+@+@+@@@+@+@@+++%%XX%",
" .....+X&+@@@@+@@@@@+@@+&.+     ",
"ooooo. X +@@@@@@@@@@@@@+..ooo...",
".   OO %.o+@+@@@+@@@+@+o.OOO... ",
"..Ooo. %.*=+-+@+;+@+-+=*oo..O...",
".. O.. X*=*==:+:::+:==*=*o...  .",
".... o.%*=**::>>>>>::**=*.ooo...",
". ..ooo*=*==:::::::::==*=* .o...",
"..oo...*=*=:::>>>>>:::=*=*O.....",
"..     *===::>>>>>>>::===*....  ",
"XX%%%%*====::>>>>>>>::====*XXXXX",
"   ..o*===::>>>>>>>>>::===*.  . ",
"..ooooO**=::>>:::::>>::=**o.... ",
".oooo....***************oO.. .. ",
" .oOOO.  ooo,<<,X,<<,.....ooo.. ",
".oo.. ..ooo..,, X ,,OOO..  ...  "
};
