/* XPM */
static char *b1fdb3f52b1e4c2d8ad38a42a48d1e920cH7biiKeDavDBel[] = {
/* columns rows colors chars-per-pixel */
"32 32 21 1 ",
"  c #302404",
". c #483910",
"X c #1F1600",
"o c #503F13",
"O c #59440F",
"+ c #745C1F",
"@ c #A88E35",
"# c #C4B85C",
"$ c #D5D196",
"% c #261B00",
"& c #7A6843",
"* c #323234",
"= c #444444",
"- c #CA9E73",
"; c #DDBD9C",
": c #545456",
"> c #6D6D6E",
", c #416E5F",
"< c #549E8E",
"1 c #265358",
"2 c white",
/* pixels */
" ...........   ... X  ..  oooo. ",
" ..OOOO....ooo.....X .o......ooo",
" ...ooooooooo .. + X+++ooo.OO...",
"..  ...   o+++. +@++#@.OOOOooo..",
".....  ooo+@#@++@@+#@+..........",
"......OOO..++##@#@##++++++oo....",
"    ..   ++@#$##$##$##@##@+ooooo",
"%%%%XXX%+@##$##$$###$###@+%%%%XX",
"  ...oo+###$$#######$$#@+  X .. ",
".oooo.+@+@##$#######$###@+ % ...",
" ....  +@####$#$$$#$#####@+% ...",
"......+@########$##########+ooo.",
".   .+@@+###############@###+ ..",
" ...o+@+##@##########@###+++... ",
".OOOO++@#@+##@##@#@##@@##@+X .. ",
"      +@@++@#@##@@@@##+@##+X ...",
"X%X%%X+@++@+@+#@+@@+@#@++@@+%XX%",
" .....+@++@@+@+@+@@@+@@++++     ",
"ooooo. +&+@@@@@+@@@@@+@+&.ooo...",
".   OO %.&+@@@@@@@@@@@+&.OOO... ",
"..Ooo. %..+@+@@@+@@@+@+ooo..O...",
".. O.. X *=+-+@+;+@+-+=*.o...  .",
".... o.% **==:+:::+:==**o.ooo...",
". ..ooo%*:==:::::::::=*=*  .o...",
"..oo...*>:=:::>>>>>::=*=*.O.....",
"..    *:>::::>>>>>>::=*=*.....  ",
"XX%%%%=>>::=:>>>:>>>::==*%%XXXXX",
"   ..*:>>::=>>>>:>>>::==*...  . ",
"..ooo*:>::=:>>>::>::::==*oo.... ",
".oooo.**===:>>:::====:=*oO.. .. ",
" .oOOO. ********=,<<1=*...ooo.. ",
".oo.. ..ooo.... X,<<1OO..  ...  "
};
