/* XPM */
static char *xpm_[] = {
/* columns rows colors chars-per-pixel */
"32 32 42 1 ",
"  c #302404",
". c #483910",
"X c #1F1600",
"o c #503F13",
"O c #59440F",
"+ c #745C1F",
"@ c #C4B85C",
"# c #A88E35",
"$ c #261B00",
"% c #D5D196",
"& c #EEDAB3",
"* c #464646",
"= c #7A6843",
"- c #FDF0C5",
"; c gray85",
": c #232323",
"> c gray95",
", c gray55",
"< c #CA9E73",
"1 c white",
"2 c #2D401C",
"3 c #DDBD9C",
"4 c #417517",
"5 c #323234",
"6 c #444444",
"7 c #545456",
"8 c #6D6D6E",
"9 c #777575",
"0 c #DBD8D7",
"q c #516CED",
"w c #75A2FF",
"e c #453FB4",
"r c #352A80",
"t c #265358",
"y c #4B6757",
"u c #6A8779",
"i c #809D90",
"p c #92B0A3",
"a c #416E5F",
"s c #3E7F68",
"d c #549E8E",
"f c #503D0C",
/* pixels */
" ...........   ... X  ..  oooo. ",
" ..OOOO....ooo.....X .o......ooo",
" ...ooooooo+o .++  X ooooo.OO...",
"..  ...   +@#++#+++++..OOOOooo..",
".....  ooo+#@@+#@+#@#+..........",
"......OOO..+#@@+@#@#++++oooo....",
"    .. ++++++#@@@@@@@@@#++ ooooo",
"$$$$XX+#@@@@@%@@@@@%@@#++++$$$XX",
"  ...oo+#@@%%@@@@@@@%%@##+ X .. ",
".oooo..++#@@%%@@@@@%%@@@@#+$ ...",
" .... +##@@@@%@%%%@%@@@#@@#+ ...",
".....+##@@#@@@@@@@@@#@@@+###+oo.",
".   +##@@+@@@@@#@@@#+#@@#+++. ..",
" ...o++++#@@#+#@@@#+&+#@#+.$... ",
".OOOOO+#+@@#+##@@#+&&&+##+ X .. ",
"     +###+++#+#@#+***&&+#+ X ...",
"X$X$$+##+###=+##+-;:;-&=+XX$$XX$",
" ....+#++###=-++-->:,-&=O.      ",
"ooooo.+X+###=&<---122-3=..ooo...",
".   OO $+#+##=3&---44-<=.OOO... ",
"..Ooo. $.+.+##33&----3=ooo..O...",
".. O.. X O55+#<33&&3<=...o...  .",
".... o.$ 5678+=======.ooo.ooo...",
". ..ooo$57877867776665O    .o...",
"..oo...568590177888765....O.....",
"..    5678901109777665........  ",
"XX$$$$578=3-109qwwqer$XXX$$XXXXX",
"   ..5678=3--9teqqeyr.......  . ",
"..ooo56785=33=ytuippitOoooo.... ",
".oooo.57855==aatyuusddtfoO.. .. ",
" .oOOO.57555ttt ttadddt...ooo.. ",
".oo.. ..5oo.... X ttttO..  ...  "
};
