/* XPM */
static char *xpm_[] = {
/* columns rows colors chars-per-pixel */
"32 32 42 1 ",
"  c #302404",
". c #483910",
"X c #1F1600",
"o c #503F13",
"O c #59440F",
"+ c #745C1F",
"@ c #A88E35",
"# c #C4B85C",
"$ c #D5D196",
"% c #261B00",
"& c #EEDAB3",
"* c #464646",
"= c #FDF0C5",
"- c gray85",
"; c #232323",
": c #DDBD9C",
"> c #7A6843",
", c gray95",
"< c gray55",
"1 c white",
"2 c #2D401C",
"3 c #CA9E73",
"4 c #417517",
"5 c #323234",
"6 c #777575",
"7 c #B9B6B5",
"8 c #444444",
"9 c #545456",
"0 c #DBD8D7",
"q c #453FB4",
"w c #6D6D6E",
"e c #352A80",
"r c #516CED",
"t c #75A2FF",
"y c #265358",
"u c #809D90",
"i c #6A8779",
"p c #92B0A3",
"a c #4B6757",
"s c #3E7F68",
"d c #549E8E",
"f c #416E5F",
/* pixels */
" ...........   ... X  ..  oooo. ",
" ..OOOO....ooo.....X .o......ooo",
" ...oooooo+++ .+   X ooooo.OO...",
"..  ...   o@#++@+. +++.OOOOooo..",
".....  ooo.+@#+@@++@#@+.........",
"......O++++++##@#@##++oooooo....",
"    ..+@##@##$##$##$#@++ . ooooo",
"%%%%XXX+@###$###$$##$##@+%%%%%XX",
"  ...oo +@#$$#######$$###+ X .. ",
".oooo..+@###$#######$##@+@+% ...",
" .... +@#####$##$$#$####@+ % ...",
".....+###@@###@$$#@###@##@+%ooo.",
".   +###@@###@+##@+@###@+@@+. ..",
" ...o++++@##@+##@+&+@##@@+@+... ",
".OOOOOO+@##@++@++&&&+@##@@++ .. ",
"      +@@#@+**+===***+@#+@+X ...",
"X%X%%+@@+@+&-;-===-;-&+@+@+%%XX%",
" .....++:>:&,;<===<;,&:>+@+     ",
"ooooo. X>>:&122===221&:>>+ooo...",
".   OO %.>3&=44===44=&3>.OOO... ",
"..Ooo. %..>:&=======&:>ooo..O...",
".. O.. X 55>3:&&&&&:3>55.o...  .",
".... o.%6788>>>>>>>>>8965.ooo...",
". ..ooo>300899888889991065 .o...",
"..oo...>3:7q89wwwww98711:>O.....",
"..     5>>6er99www99r6==&>5...  ",
"XX%%%%55555eqrtqeqtrqy&::>5XXXXX",
"   ..o55555yuqquuuqqiy>>>95.  . ",
"..oooo55555yuppiaaiiay59995.... ",
".oooo..5.o5yippyyyssy55995.. .. ",
" .oOOO.  ooosddfX yyo..55.ooo.. ",
".oo.. ..ooo.yddfX ..OOO..  ...  "
};
