/* XPM */
static char *xpm_[] = {
/* columns rows colors chars-per-pixel */
"32 32 42 1 ",
"  c #302404",
". c #483910",
"X c #1F1600",
"o c #503F13",
"O c #59440F",
"+ c #745C1F",
"@ c #A88E35",
"# c #C4B85C",
"$ c #D5D196",
"% c #261B00",
"& c #EEDAB3",
"* c #464646",
"= c #7A6843",
"- c #FDF0C5",
"; c gray85",
": c #232323",
"> c gray55",
", c gray95",
"< c #CA9E73",
"1 c #DDBD9C",
"2 c #2D401C",
"3 c white",
"4 c #417517",
"5 c #323234",
"6 c #444444",
"7 c #545456",
"8 c #6D6D6E",
"9 c #B9B6B5",
"0 c #777575",
"q c #DBD8D7",
"w c #352A80",
"e c #453FB4",
"r c #516CED",
"t c #75A2FF",
"y c #4B6757",
"u c #265358",
"i c #809D90",
"p c #92B0A3",
"a c #6A8779",
"s c #3E7F68",
"d c #549E8E",
"f c #416E5F",
/* pixels */
" ...........   ... X  ..  oooo. ",
" ..OOOO....ooo..+..X .o......ooo",
" ...ooooooo+++++@+ +++oooo.OO...",
"..  ...   o.+#@+#@+##@+OOOOooo..",
".....  +++++++#@#+##@+..........",
"......OO+@##@@#####@+++++ooo....",
"    ..  ++@##$#####$###@@+ ooooo",
"%%%%XXX+@@#$$#######$$###@+%%%XX",
"  ...o+@####$$#####$$##@++ X .. ",
".oooo+@##@###$#$$$#$####@+ % ...",
" ...+@@@+###@#########@##@+% ...",
".....+++@##@+@###@####@+##@+ooo.",
".   ..o+##@+&+@###@+@##++@@@+ ..",
" ...oo +#@+&&&+@##@@+@#+@+++... ",
".OOOOOO+@+&&***+@#+=@+@+@@+X .. ",
"        +=&-;:;-+@+-=@++@@+X ...",
"X%X%%XX%%=&->:,--+<-=@@++@+%%XX%",
" ..... X.=1-223---<&=@@+O+      ",
"ooooo. X =<-44---&1=@+@+..ooo...",
".   OO %.o=1----&11@@++o.OOO... ",
"..Ooo. %...=<1&&11<@+5oooo..O...",
".. O.. X OOO=======+665..o...  .",
".... o.% . 5666777677775o.ooo...",
". ..ooo%ooo56788877396865  .o...",
"..oo...X ..566777033q0875.O.....",
"..     X..  wertt0q3q08765....  ",
"XX%%%%%%%%%%wyerr=--&=8765%XXXXX",
"   ..ooooo.oouipi=--1=7765..  . ",
"..ooooOOooo..uapii===57765o.... ",
".oooo....ooo .usdsfu55765O.. .. ",
" .oOOO.  oooo.uddsfuo.55..ooo.. ",
".oo.. ..ooo....uuuu.OOO..  ...  "
};
